<?xml version="1.0" encoding="utf-8"?><svg xmlns="http://www.w3.org/2000/svg" xmlns:xlink="http://www.w3.org/1999/xlink"><symbol viewBox="0 0 170 180" id="ampoule"><path d="M113.2 59.8c-8.1-15.8-28.2-23-44.8-19-18.1 4.4-31.9 21.1-28.3 39.9 1.8 9.3 8 16.6 14.5 23 3.7 3.5 7 7.1 8.8 11.9 2.3 6 1.3 12.9 2.7 19.2.1.5.9.4.9-.1.6-8.2 1.2-16.5-2.4-24.1C61.4 103.8 54.4 99 49.8 93c-5.5-7.2-7.9-16.6-6-25.5 2.1-9.5 10.7-16.6 19-20.8 16.2-8.1 35.7-1.8 46 12.5 5.6 7.7 4.3 16.2.6 24.4-1.8 3.9-4.3 7.4-7.3 10.5-2.8 2.9-6 5.2-7.9 8.8-.3.5.3.9.8.6 7.4-6.1 14.1-10.9 17.9-20 3.5-8.2 4.4-15.7.3-23.7z"/><path d="M69.2 49.5c-8.9-1.2-16 9.6-19.1 16.7-3.8 8.9-1.3 23 7.8 28 .5.3 1.1-.3.8-.8-2.1-3.8-4.6-6.9-6.2-11.1-1.9-5.2-1.4-10.9.7-16 2.6-6.1 8.9-15.4 16-16.4.2-.1.2-.4 0-.4zm29.2 54.7c0-.2-.3-.3-.3-.1-2.3 6.8-2.9 13.8-4.3 20.8-.8 3.6-1.8 7.1-3.9 10.2-2.6 4-6.8 3.9-11.1 3.6-.5 0-.7.7-.2.9 4.6 2.5 8.7 1.6 11.8-1.1-.4 1.5-.7 2.7-2.2 3.8-2.1 1.5-5 2-7.5 2.3-2.4.2-4.9-.1-7.2-.8-1.2-.4-2.3-1-3.2-1.8-.6-.6-1-2.4-1.3-2.4l.3-.3c0-.1.1-.1.1-.2.7-1-.4-2.1-1.4-1.9-.2 0-.3.1-.5.1-.4.1-.9.5-1 1-.3 2 0 3.6.9 4.9-1.5 1.5-2.5 4.2-1.4 6.1-.1.1-.2.1-.3.2-2.9 3.1-1.9 5.3.5 6.8-.5.4-.7 1.1-.6 1.8.1 1.3 1.1 2.3 2.3 3.2-.2.2-.4.5-.4.9-.1 3.4 1.5 7.2 3.7 9.8 1.9 2.3 4.3 2.4 7.2 2.5 6.1.2 12-5.1 10.1-11.5-.2-.5-.9-.7-1.2-.2-2.1 4.1-2.4 7.8-8 8.2-2.2.1-4.5.2-5.9-1.7-1.5-1.9-2.4-4.2-3-6.5.2.1.4.2.5.3 5 2.5 17.7.9 20.3-4.7.2-.4-.1-.8-.5-.7-1.9.4-3.6 1.4-5.4 2-2.7 1-5.7 1.5-8.6 1.7-2.9.2-8.3-1-8.7-4.2 3.8 1.6 9.2 2.1 11.4 2 4.2-.2 8.8-1.1 12.2-3.9 2.4-2 3-6.2.5-8.2.6-1.3.8-2.9.3-4.6v-.1c1-1.7 1.2-3.8-.5-5.2 1.3-1.5 2.4-3.3 3.2-5.3 3.2-9 1.6-18.5 3.3-27.7zm-29.8 40.5c3 2.6 8.3 3.3 12 3.1 3-.1 6.4-.8 8.9-2.6-.5.9-1 1.9-1.8 2.7-2.3 2.5-6.1 2.9-9.2 3-3 .1-6.1-.4-8.8-1.6-2.8-1.1-1.6-2.9-1.1-4.6zm20 8.8c-2.4 1.7-5.8 2.2-8.7 2.5-3.1.3-6.3.1-9.4-.6-1.7-.4-6.5-3-3.2-4.7 2.9 2.1 6.5 2.5 10 2.7 3.6.2 9.6-1.1 12.8-4.1.3 1.7.3 3-1.5 4.2z"/><path d="M92.7 74.2c-.7.6-.4 1.6.1 2.1-.2.6-.3 1.2-.4 1.9-.1.4.2.8.5 1-1.5 4.2-4.1 8.1-6.3 11.9-1.5 2.6-2.6 5.5-3.6 8.4-.5-.5-1.2-.9-1.9-1.1-1.3-.3-2.3.2-3.1 1.2-.8-3.1-4.6-7.4-5.6-9.3-2-3.4-3.3-7-4.1-10.9-.3-1.6-.8-3.1-1.4-4.5.1-.3.1-.6 0-.9 2-2.7 2.9-5.9 4.5-8.8.5 6.6-.2 13.6 2.7 19.7.4.7 1.3.3 1.4-.4.5-4.9 1.5-9.6 3-14.3-.3 3.5-.2 7 2.1 9.4.3.3.8.3 1.1.1 2.1-1.3 2.9-3.2 4.1-5.1.5 1.2 1.3 2.2 2.5 2.9.7.5 1.4-.5.9-1.1-1.1-1.1-1.8-2.4-2-4-.1-.7-1-1.4-1.6-.7-.7.9-1.3 1.7-1.8 2.7l-.9 1.8c-2 3.5-2.4-1.3-2.5-2.1-.4-3.2.1-6.5.2-9.7 0-.9-1.2-1-1.5-.2-2.2 5.5-3.9 11.3-4.7 17.2-1.8-5.7-1.2-12.2-2.1-18.1-.1-.5-.8-.5-1-.1-2 3.2-2.9 6.9-4.7 10.2-.1-.1-.1-.2-.2-.3-.3-.6-.8-1.2-1.6-1.9s-2-.6-2.5.3c-.1.1-.1.2-.2.3-.7.3-1.2 1.1-1.2 2.3 0 1 .6 1.6 1.5 1.9.3.6 1 1 1.7.7.1 0 .2-.1.3-.1.9 2.2 1.2 4.7 1.8 7 .9 3.2 2.8 6.3 4.4 9.1 1.1 1.9 3.7 7.3 6.1 8.5-1.4 3.4-1.8 8.3-2 9.9-.5 5-.2 10-.3 15 0 2.8-1.2 6.6.9 8.8.2.2.5 0 .5-.2.1-5.1 1.1-10.1 1.2-15.2 0-2.8.1-5.6.3-8.4 0-.6 2.3-11.6 3.6-9.7 2.1 2.9 2.4 7.6 2.8 11.1.9 6.9.8 13.9.2 20.8 0 .5.8.7 1 .3 3.4-7.8 2.5-16.3 1.2-24.6-.3-2.2-.9-6.1-2.4-8.6 2.2-1.8 3.3-6.3 4.6-8.5 2.9-4.7 6.1-9.4 7.4-14.8 2-2.5.3-6.1-3-2.9zm-7-63.9c-.4-1.5-2.5-1.4-3 0-1 3-1.2 6.3-1.7 9.5-.4 2.9-1 5.9.5 8.6.5.9 1.9.9 2.4 0 1.4-2.4 1.4-5.3 1.7-8 .4-3.4 1.1-6.8.1-10.1zm38.1 12.4c.3-1.6-1.5-2.9-2.8-1.6-2.3 2.3-4.2 4.8-6 7.5-1.9 2.9-4.2 6.5-3.9 10.1.1.8.9 1.5 1.7 1 2.9-2.1 4.4-5.7 6.2-8.7 1.2-2 2.6-3.8 3.9-5.7.5-.7.7-1.2 1-2 0-.2.1-1.9-.1-.6zm26 27.3c-2.9-.2-6.2 2.1-8.7 3.3-2.8 1.4-6.7 3-8.5 5.8-.4.6 0 1.6.7 1.7 3 .4 5.9-1.4 8.5-2.6 2.9-1.4 6.8-2.8 9.3-4.9 1.4-1.2.3-3.2-1.3-3.3zm4.6 30c-2.3-.9-6.3.9-8.7 1.4-3.9.8-8.8.9-12 3.3-.8.5-.7 1.8.3 2 4 1.1 8.9-.5 12.9-1.3 2.2-.5 8.4-1.4 8.1-4.7-.2-.3-.3-.5-.6-.7zm-12.3 34c-2.7-.6-5.5-1-8.3-1.4-2-.3-5.4-1.6-7.3-.5-.5.3-.8.9-.6 1.4.8 2.3 4.7 2.7 6.7 3.1 2.9.6 6.4 1.5 9.4.8 1.8-.3 1.8-3 .1-3.4zM53.2 22.2c-.5-1-1.1-2-1.6-3-.2-.4-.3-.7-.4-1.1-.1-.1-.2-1-.2-.6-.1-2.7-4-2.7-4.2 0-.1 2.1 1.3 4.3 2.2 6 .9 1.7 2.4 4.1 4.3 4.6.8.2 1.4-.4 1.5-1.1.3-1.5-.9-3.4-1.6-4.8zM40.4 44.9c-1.1-2.2-3.4-3.6-5.3-5-2.2-1.7-4.7-3.2-7.3-4.2-2.1-.8-3.2 2.4-1.5 3.5 1.9 1.3 4 2.4 5.9 3.8 2 1.4 4.3 3.3 6.7 3.8 1.2.2 2.1-.9 1.5-1.9zM24.5 68.8c-3.7-3.1-9.9-.7-14-2.9-1.8-1-4.1 1.6-2.3 3 2.1 1.7 4.9 1.8 7.5 2.1 2.5.3 6 .8 8.3-.2.8-.3 1.3-1.3.5-2zm2.7 28.3c-2.3.2-4.3 1.4-6.2 2.5-2.4 1.4-5 2.8-7.3 4.4-1.7 1.2-.7 4.3 1.5 3.6 2.6-.9 4.9-2.4 7.2-3.8 2.1-1.3 4.4-2.8 5.8-5 .4-.7-.1-1.8-1-1.7zm12.4 21.8c-.1-.6-.7-.8-1.2-.7-1.4.2-2.6 2.3-3.2 3.4-.8 1.5-1.6 2.9-2.1 4.5-.1.3 0 .6.1.9 0 .3.2.6.6.5.3.2.9.2 1.2 0 1.4-1 2.2-2.5 3-3.9.7-1.2 1.9-3.1 1.6-4.7z"/></symbol><symbol viewBox="0 0 188.7 167.3" id="aplus"><path d="M110.9 77.6c-1.7-5.4-5.8-9.2-10.6-12.3 12-10.4 24.3-19.9 34.7-32.2.8-.9 1.2-2.3.5-3.4-.2-.3-.3-.6-.5-.8-1.1-1.8-3.4-1.5-4.3.1-.4-.1-.9-.2-1.4 0-20.8 5.8-41.6 14-61.9 21.6-1.7-.3-2.9-.2-3.3.6-.1.2-.2.5-.2.7-.7.2-1.3.5-2 .7-5.1 1.9-47.6 15.5-37.1 26.4 1 1 2.8 1.1 3.8 0C38 68.6 54.8 63.3 69 58.6c2.5 1.6 5.3 2.8 6.5 3.3 3.8 1.6 7.6 3.3 11.3 5.1-12.5 11.1-24.2 22-33.7 36-1 1.5.9 3 2.3 2.3 7.6-3.6 12.1-9.3 17.7-15.4 6.4-6.9 14.1-12.8 21.1-19.1 4.8 2.9 9.3 6.3 14.4 8.5 1.1.5 2.8-.3 2.3-1.7zM79.1 55.1c10.7-3.9 21.5-7.7 32.2-11.7 1.9-.7 4-1.4 6.1-2.2-2.1 2-4.2 3.9-6.4 5.8-5.8 5.1-12 9.6-17.9 14.5-3-1.4-6-2.6-8.7-3.7-.5-.2-2.6-1.4-5.3-2.7zm75.9 76.8c-2.3-5.4-8.4-9.7-13.9-13.3 5.3-3.1 10.6-6.2 15.5-9.8.4-.1.8-.4 1.1-.8.1-.1.2-.1.2-.2h-.1c1.4-2 1-6-2.7-5-7.7 2.1-14.9 6.1-21.8 10.5-6.2-4.3-13-8.5-20.4-9.7-1.3-.2-2.7.3-3 1.7-.1.2-.1.5-.2.7-.2 1 .4 1.9 1.2 2.1 1.9.5 5.1 3.8 6.7 4.9 2.6 1.7 5.2 3.5 7.8 5.4-.1 0-.1.1-.2.1-7.4 4.8-17.4 10.4-20.4 19.1-.6 1.8 1.3 3.6 3.1 3.2 9.3-2.4 16.9-11.5 24.7-16.8 0 0 .1 0 .1-.1 5.7 4.8 11.8 11.2 18.6 12.6 3 .5 4.8-2.1 3.7-4.6z"/><path d="M170.5 142.3c12.4-11.8 18.3-31.2 8.8-46.4-.5-.8-1.8-.3-1.5.6 10.5 43-34.6 63.8-71.3 58.2-17.3-2.6-34.1-11.2-49.1-19.8-17.8-10.2-34.7-24.6-42.2-44.1-15.6-40.8 26.4-72 62-77.5C114.5 7.5 165 22.4 184 57.2c.2.5.9.1.8-.3-2.8-19.2-25.4-33-41.7-39.8-22.2-9.2-46.9-12.9-70.6-9.5-41.3 6-79.2 44.5-62.8 87.6 7.7 20.3 26.2 34.9 44.2 45.7 18.9 11.3 41 20.7 63.2 21.3 19.3.6 39.5-6.6 53.4-19.9z"/></symbol><symbol viewBox="0 0 317 194" id="atalentegal"><path class="acst0" d="M190.4 94c-2.6 2.6-15.8 4.3-19 4.1-2.9-.2-19-2.2-22.1-2.4-5.3 1.2-12.2-1.4-17.3 2.2-1-.2-6-.7-7.2-1-1.9 0-7-.7-7-.7-2.9-.2-5.3-7.7-5-9.6-1.4-14.4 24.5-9.6 32.7-9.8l1.9-.7c9.6-1 19.2 1.2 28.6 1.2 5.3-6.2 18-4.3 19.9 3.4-.3 2.7-1.2 2.5-5.5 13.3m-74-44.6c.7-5.8 2.9-6.7 9.4-10.1l2.9.2c2.2.2 16.6-1 18.7-.7l35.8-2.4c1 .2 8.4 4.1 8.2 6l-.7 8.2c-2.2 1.7-5.8 6.5-7.9 7.2-11-.2-14.9-2.6-16.8-3.8-2.6 4.8-38.2 6-43.2 5.5-5.2-.5-6.8-4.8-6.4-10.1m38.3-42.1c-34.2 0-61.9 27.7-61.9 61.9s27.7 61.9 61.9 61.9 61.9-27.7 61.9-61.9c-.1-34.2-27.8-61.9-61.9-61.9m-118 161.1c-2.6 0-4.6-1.4-5.4-3.9-2 2.5-4 3.9-7.1 3.9-3.8 0-7.7-4.1-7.7-9.8 0-7.8 5.5-14.1 13.2-14.1 3.5 0 8.2 2.8 8.2 5.5 0 1.9-.5 3.8-.8 5.4-.4 2-.6 3.9-.6 5.2 0 1.9.6 2.4 1.3 2.4 2 .1 5.3-2.8 5.3-9.8 0-7.7-4.9-13.4-13.8-13.4-9 0-16.8 7.1-16.8 18.4 0 9.7 6.1 15.1 14.8 15.1 3.1 0 6.9-.2 10.5-2v2c0 1.8-.9 3.6-3.3 4.2-1.6.4-4.2.8-8.2.8-10.5 0-19.7-7.4-19.7-19.7 0-12.7 9.3-24 23.5-24 11.2 0 19.1 7.7 19.1 18.2-.3 9.3-5.5 15.6-12.5 15.6zm-7.9-17.8c-2.5 0-5.2 3-5.2 7.4 0 3.4 1.4 4.1 2.3 4.1 2 0 3.2-1.2 4.1-3.5.6-1.7 1.1-4.1 1.5-7-.5-.6-1.3-1-2.7-1zm26.6-11.1c1.1-1.3 2.6-2.3 3.9-2.3h1.9v7.5h11.5v3.4c0 1.7-1.5 3.9-4.9 3.9h-6.6v13c0 4.3 1.9 6 5.2 6 2.6 0 4.7-.4 6-1.2h.3v3c0 3.4-2.5 5.5-7.3 5.5-8.4 0-12.4-4.6-12.4-12.3v-20c0-3.2.6-4.5 2.4-6.5z"/><path class="acst0" d="M87.1 178.4h-1.7c-7.9 0-13.3-4.4-13.3-10.5 0-5.9 4.3-10.4 16.5-10.4h2.9v-.4c0-4.7-2.2-6.1-7.1-6.1-6 0-9.3 2.3-10.5 3.8h-.3v-2.6c0-3.7 3.3-8.1 12.1-8.1 7.4 0 14 3.4 14 14.9v7.6c0 7-5.2 11.8-12.6 11.8zm4.5-15h-3c-6.3 0-8.1 1.5-8.1 4.2 0 2.6 2.1 4.1 5.7 4.1s5.3-1.7 5.3-5.1v-3.2zm20.3 14.8c-6.8 0-10.5-3.6-10.5-10.3v-34.3h2.3c4.1 0 5.9 2.4 5.9 5.5V167c0 3.3 1.7 4.4 5.6 4.4h2.2v1.8c0 3.6-1.9 5-5.5 5z"/><path class="acst0" d="M130 164.8h-5.4c.6 4.2 4.4 6.8 9.3 6.8 3.4 0 7.5-.7 10.1-3.1h.3v2.6c0 4.2-2.9 7.5-12 7.5-8.2 0-16.3-6.5-16.3-16.7 0-11.1 6.8-18 16.2-18 6.9 0 13.3 4.9 13.3 12.9 0 6.1-4.6 8-15.5 8zm1.5-14c-4 0-6.8 3.3-6.9 7.1l-.1 1.1h3.7c7.8 0 9.6-.9 9.6-3.2 0-3.3-2.5-5-6.3-5zm43.2 27.1c-3.7 0-6-2.3-6-5.4v-13.2c0-5.6-2.5-8.1-6.7-8.1-3.6 0-6 2.7-6 7.4v19.2h-2.5c-3.5 0-5.8-2.3-5.8-5.4v-14.3c0-7 4.6-14.2 14.9-14.2 7.8 0 14.3 5.2 14.3 14.6v19.3h-2.2zm7.7-38.4c1.1-1.3 2.6-2.3 3.9-2.3h1.9v7.5h11.5v3.4c0 1.7-1.5 3.9-4.9 3.9h-6.6v13c0 4.3 1.9 6 5.2 6 2.6 0 4.7-.4 6-1.2h.3v3c0 3.4-2.5 5.5-7.3 5.5-8.4 0-12.4-4.6-12.4-12.3v-20c0-3.2.6-4.5 2.4-6.5zm49.2 33.5c-.1 3.4-1.8 5.2-9.2 5.2H218c-10.3 0-15.7-5.7-15.7-16.4V154c0-4 .3-8.5.8-11.9.7-5 3-6.3 6.5-6.3h22v2.8c0 3-1.8 4.4-5.7 4.4h-14.5c-.4 3.1-.6 7.2-.6 9.8H227v3c0 2.8-1.7 3.9-5.1 3.9h-11.1v2.5c0 7.3 2.4 8.7 8.9 8.7h2.7c3.1 0 6.2-.2 9.2-.9v3zm30.6-4.4c.1 1.4.1 3.1.1 4.2 0 8.3-5.5 15.7-16.2 15.7-6.8 0-11.5-3.3-11.5-7.3v-3.8h.4c2 2.1 5.8 3.6 10.5 3.6 6 0 8.7-2.8 8.7-7.6 0-.5 0-1.2-.1-1.7 0-.5-.1-1.4-.1-1.7v-.8c-.7 2.4-3.8 4.9-8.5 4.9-8.1 0-13.8-5.6-13.8-13.4 0-9.3 6.2-16.9 16.8-16.9 8.2 0 13.5 6 13.5 14.5v5.7c.1 1.2.2 3.1.2 4.6zm-22-8.8c0 4.3 2.6 7.5 6.6 7.5 4.1 0 7.1-3.1 7.1-8.4 0-5.2-2.6-7.7-6.2-7.7-4.3.1-7.5 3.6-7.5 8.6zm40.1 18.6h-1.7c-7.9 0-13.3-4.4-13.3-10.5 0-5.9 4.3-10.4 16.5-10.4h2.9v-.4c0-4.7-2.2-6.1-7.1-6.1-6 0-9.3 2.3-10.5 3.8h-.3v-2.6c0-3.7 3.3-8.1 12.1-8.1 7.4 0 14 3.4 14 14.9v7.6c-.1 7-5.3 11.8-12.6 11.8zm4.4-15h-3c-6.3 0-8.1 1.5-8.1 4.2 0 2.6 2.1 4.1 5.7 4.1s5.3-1.7 5.3-5.1v-3.2zm21.9 14.8c-6.8 0-10.5-3.6-10.5-10.3v-34.3h2.3c4.1 0 5.9 2.4 5.9 5.5V167c0 3.3 1.7 4.4 5.6 4.4h2.2v1.8c0 3.6-1.9 5-5.5 5z"/></symbol><symbol viewBox="0 0 371 331" id="avion"><path d="M201 8c6.7 3.3 8 6.1 6.1 13.6-2.3 9.2-7.9 16.4-14.3 23-8.9 9.1-18 17.8-26.7 27-1.7 1.8-3 4.8-3 7.3-.2 35.5-.3 71 0 106.5.1 9.3-4.6 14.9-11.9 19.1-3.4 2-5.4.2-6.2-3.2-1.7-8-3.3-15.9-4.9-23.9-3.5-17.6-6.8-35.3-10.5-52.8-.8-3.6-3.4-6.7-5.2-10.1-.8-.2-1.6-.5-2.4-.7-1.4 2-2.6 4.4-4.3 6.1-14.1 13.7-28.4 27.2-42.4 40.9-1.2 1.2-2.1 3.4-2.1 5.1-.2 9.8.3 19.7-.3 29.5-.2 3.9-2 8-4.2 11.3-3 4.5-5.5 3.8-7.2-1.5-2.5-7.9-4.8-15.9-7.2-23.8-.4-1.4-.9-2.8-1.5-4.5-4 1.6-7.7 3.5-11.6 4.6-1.8.5-4.6.3-5.9-.8-1-.8-1-3.8-.4-5.4 1.7-4.7 3.9-9.1 6-14.1-9.7-3-19.5-5.9-29.3-9.1-2-.7-3.6-2.3-5.5-3.5 1.3-1.8 2.2-4.3 3.9-5.2 3.1-1.6 6.7-3 10.2-3.1 10.6-.3 21.3.1 32 .1 1.7 0 3.8-.5 4.9-1.6 14.5-14.7 28.9-29.5 43.3-44.3.3-.3.5-.8.9-1.4-3.1-3.2-5.6-6.3-10.7-7.3-23.2-4.3-46.3-9-69.5-13.6-1.6-.3-3.3-.7-4.8-1.2-3.3-1.2-3.8-3.4-2-6.3 4.5-7.5 10.5-11.7 19.9-11.6 34.3.3 68.7.1 103 .2 3.2 0 5.6-.8 7.9-3.2 7.3-7.6 14.9-14.8 22.2-22.4 8.3-8.6 17.3-16 28.9-19.6 1.5-.1 3.1-.1 4.8-.1zm-31 315c-6-3.7-7.2-6.7-5.3-13.8 2.2-8.5 7.1-15.4 13.1-21.5 8.6-8.8 17.3-17.6 26.2-26.1 2.7-2.6 3.9-5.3 3.9-9.1-.1-35.2.1-70.3-.2-105.5-.1-8.7 3.1-14.6 10.2-19.1 4.8-2.9 7-2.4 8.2 3.1 2.2 10.1 4.1 20.2 6.1 30.3 3 15.3 5.7 30.7 9.2 46 .8 3.5 4.3 6.3 6.9 9.9 8.5-8.5 16.2-16.5 24.2-24.3 7.6-7.4 15.6-14.5 23.2-22 1.4-1.4 2.2-4 2.2-6 .2-10.2.1-20.3-.2-30.5-.1-4.8 1.4-8.7 4.7-12.2 3.1-3.2 5.2-2.9 6.6 1.5 2.2 6.6 4.1 13.4 6.1 20 1.1 3.5 2.1 7 3.3 10.8 4.2-1.8 8.1-3.7 12.3-5.1 1.8-.6 4.8-.5 5.9.6 1.1 1.1 1.1 4 .5 5.9-1.2 3.9-3.1 7.7-4.9 12.1 8.6 2.6 17.3 5.1 25.9 7.9 2.8.9 5.3 2.6 7.9 3.9v2c-4.9 5.5-11.1 7.2-18.4 6.8-8.8-.5-17.6-.2-26.5 0-1.7 0-3.9.8-5.1 2.1-10 10.3-19.7 20.7-29.6 31-5.3 5.5-10.8 10.8-17.3 17.3 4.6 2.4 8.1 5.3 12.2 6.2 16.1 3.5 32.3 6.5 48.4 9.6 8.3 1.6 16.6 3.2 24.9 5 6 1.3 6.5 3.5 3.2 8.7-4.4 7-10.4 9.8-18.8 9.7-34.8-.3-69.6-.2-104.4 0-2.6 0-5.8 1.4-7.7 3.2-7.9 7.4-15.5 15.1-23 22.9-8 8.2-16.8 15.1-27.9 18.5-2 .2-4 .2-6 .2z"/></symbol><symbol viewBox="0 0 227.3 294" id="avion-papier"><path d="M4.9 10.1H5c2.4 3.8 5.6 7.1 8.3 10.7 3 3.9 5.9 7.8 8.9 11.7 5.5 7.4 11 14.8 16.8 21.9 5.9 7.2 11.6 14.6 17.2 22 5.5 7.3 11.6 14.8 15.9 23 .4.8 1.5.8 2.2.4 2.6-1.5 4-4.3 5.2-6.9 1.8-3.8 3.8-7.7 5.8-11.5.3-.7.7-1.3 1-1.9 2.8 2.4 6.3 3.6 9.7 5 2.1.9 4 2.1 6 3.2 1.3.7 2.5 1.5 3.8 2.1.1 0 .1 0 .2.1.9 1.2 2.9.4 2.7-1.1-.5-4.6-.6-9.3-.7-13.9.1-4.6-.1-9.2 1.5-13.4 7.3-.6 15-2.8 22-4.4 5.8-1.3 14.4-1.6 19.1-5.6.8-.7.9-2.2-.2-2.7-11.9-5.3-23.7-10.2-36.4-13.4-13-3.3-26-6.5-38.9-9.9-13.1-3.4-26-7.3-39-10.8-5.7-1.5-11.4-3-17-4.7C14.6 8.7 10 7.3 5.3 8c-.3-.1-.6 0-.8.2-.7.5-.7 1.8.4 1.9zm104.9 48.1c-1.4-1.6-3.4-2.8-5.6-3.9-2.8-2.3-6.5-4.2-9.4-5.6-5.8-2.9-11.5-6-17.3-9C65.3 33.4 53.2 27 40.9 21c-4.4-2.1-8.8-4.1-13.4-5.8 3.3 1 6.6 2.1 9.9 3 12.4 3.4 24.7 7.1 37.2 10.4 12.3 3.2 24.7 6.3 37.1 9.5 12.1 3.2 23.4 7.5 34.8 12.6-5 2.5-12.4 2.9-17.4 4-6.4 1.2-12.9 2.2-19.3 3.5zm-9.2-1.3c-.1-.2-.3-.4-.4-.6.6.2 1.2.5 1.8.7 0 .1-.1.1-.1.2v.3c-.4-.2-.8-.4-1.3-.6zM87.5 77.3c1.5-2.6 3.1-5.2 4.5-7.8.7-1.4 1.5-2.8 2.2-4.2 1.5 3.9 3.6 7.6 5.2 11.4 1.3 3.1 2.7 6.2 4.3 9.2-1.7-1.2-3.6-2.3-5.4-3.1-3.7-1.7-7.5-3-10.8-5.5zM10.6 13.1C23.9 20.8 38.4 26.7 51.9 34c14.6 7.9 28 17.2 41.3 27.1-.6.9-1 1.9-1.3 2.4-2.4 4.1-4.8 8.1-7.2 12.2-2.3 3.8-4 7.9-6.1 11.9-1.4 2.6-2.7 6.4-4.9 8.7-5.6-7.4-10.7-15.4-16.3-22.8-5.7-7.4-11.6-14.6-17.4-21.8-6.2-7.7-12-15.6-17.9-23.4-3.8-4.9-7.3-10.5-11.5-15.2z"/><path d="M49.1 37.9c7 3.1 13.4 7.2 19.8 11.2 6.4 4 13.3 7.6 19 12.5.3.2 0 .6-.3.5C80.6 59.6 74.2 55 68 51c-6.5-4.1-13.1-8-19.3-12.4-.4-.3 0-.9.4-.7zm68.7 59.3c2 1.1 3.7 2.8 5 4.7 1 1.4 2.8 3.6 2.1 5.5-.2.4-.6.7-1.1.4-1.4-.8-2.1-2.8-3-4.1-1.2-1.8-2.8-3.3-4.4-4.7-1.1-.9.3-2.4 1.4-1.8zm13.9 19c3.4 1.9 6.7 6 6.1 10.1-.1.5-.8.7-1.1.3-1.1-1.3-1.7-2.9-2.5-4.4-1-1.7-2.3-3.1-3.8-4.3-1-.7.3-2.3 1.3-1.7zm14.7 21.6c1.1.9 1.7 2.5 2.2 3.7.6 1.4 1.5 3.1 1.4 4.7 0 .5-.6 1-1.1.6-1.2-.8-1.8-2.3-2.3-3.5-.5-1.1-1.2-3.1-1.8-3.8-1.1-1.2.4-2.7 1.6-1.7zm6 15.7c.6.8 1.4 1.5 1.9 2.5.5.8 1.1 2.4.2 3.1-.2.2-.5.2-.8 0-.4-.3-.4-.6-.5-1.1-.2-.6-.4-1.2-.7-1.7-.4-.8-.6-1.7-.7-2.6.1-.2.4-.4.6-.2zm6.9 12.9c.8 1.2 1.5 2.4 2.1 3.7.7 1.3 1.6 2.4 1.9 3.9.1.4-.3.9-.7.7-2.8-1.1-4.1-5.2-4.5-7.9-.2-.7.7-1.1 1.2-.4zm9.5 16.3c1.4.5 2.4 1.4 3.5 2.3 1.2 1 2.9 2.1 3.1 3.7.1.4-.4.7-.7.7-1.6.1-3.1-1.6-4.1-2.7-1-1-1.9-2.1-2.4-3.4-.2-.3.2-.8.6-.6zm17.2 14.1c1.2-.6 2.1-.3 3.3.2 1.4.5 3.2.8 4.3 1.8.2.2.3.7 0 .9-2.1 1.7-6.5-.1-7.8-2.2-.1-.3-.1-.6.2-.7zm19.7 4.2c.4.1 1.4-.2 1.8-.3.8-.2 1.5-.4 2.2-.8 1.3-.6 2.5-1.9 4-1.9.3 0 .7.3.7.7-.1 1.9-2.6 3-4.1 3.6-.8.3-1.8.5-2.7.4-1.2-.2-1.2-.6-2-1.4-.2-.1-.1-.3.1-.3zm12.7-12.8c.2-2.1.4-4.4.1-6.5 0-.2.2-.3.4-.2 1.2 1.1 1.4 3.2 1.5 4.7.1 1.8.2 4.3-.9 5.8-.2.2-.5.3-.8.2-1.4-.2-.4-3.3-.3-4zm-8.5-18c1.3-.8 3.5.8 4.5 1.6 1.2 1 2.2 2.4 2 4.1-.1.6-.9.6-1.2.2-.8-1.1-1.5-2.1-2.6-2.9-.9-.6-2.6-1.1-2.9-2.2-.2-.4-.1-.7.2-.8zm-19.2-4.8c1.2-1.8 4.1-1.6 6-1.5 1 0 2.1.1 3.1.4.8.3.7.7 1.1 1.2.2.2 0 .6-.3.5.1 0-1 .4-1.1.4-.9.1-1.9 0-2.9-.1-1.8 0-3.9.6-5.6-.1-.3 0-.6-.5-.3-.8zm-14.6 3.1c.3-1.4 2.1-1.9 3.3-2.4 1.3-.5 3.1-.9 4.2.1.3.2.3.7 0 .9-.9.8-2.4.9-3.6 1.3-1.2.4-2.4 1.3-3.7.7-.2 0-.3-.3-.2-.6zm-9.4 5c1-.9 2.6-1.7 3.9-1.6.8.1 1 1 .4 1.5-.9.6-1.9 1.1-2.7 1.8-.7.6-1.5 2-2.6 2.2-.3 0-.6 0-.7-.3-.6-1.4.8-2.8 1.7-3.6zm-8.3 11.9c.7-1.5 1.5-3 2.9-3.9.7-.4 1.4.4 1 1-.7 1.2-1.5 2.4-2 3.7-.5 1.2-.7 2.7-1.5 3.8-.3.4-1 .4-1.2-.2-.4-1.4.2-3 .8-4.4zm-2.4 19.3c.5-.9.9-.7 1.7-1.1.1 0 .2 0 .1.1-.2.4.2 1.1.2 1.6-.1 1.2.1 2.5.2 3.6.3 1.9 1.3 4.1.6 5.9-.2.4-.6.5-1 .3-1.9-1.5-2.1-4.8-2.3-7.1-.1-1 0-2.3.5-3.3zm4.1 19c0-.1.1-.2.2-.1 1.2 1 2.1 2.4 2.6 3.9s1.2 3.1.4 4.5c-.2.4-.7.4-.9.1-1.2-1-1.3-2.6-1.7-4-.5-1.4-.8-2.9-.6-4.4zm4.8 18.8c.1-.8 1.4-.8 1.6 0 .4 1.6.6 3.2.9 4.8.3 1.5.6 2.9-.3 4.2-.2.3-.6.3-.9 0-.9-1.2-.9-2.7-1.1-4.2-.3-1.7-.5-3.2-.2-4.8zm1.1 24.8c.2-1.6.5-3.4 1.3-4.8.3-.5 1-.2 1 .3.2 1.4-.1 2.9-.3 4.3-.2 1.4-.1 2.8-.8 4-.2.3-.7.3-.9 0-.7-1.3-.5-2.6-.3-3.8zm-5.7 15.1c.5-.5 1.1-1 1.6-1.7.2-.3.4-.6.6-1 .1-.3.4-.3.4-.6.1-.4.6-.3.6.1s.3.7.3 1.1c0 .4-.1.9-.3 1.3-.5.9-1.2 1.7-2.1 2.2-.9.5-1.9-.7-1.1-1.4z"/></symbol><symbol viewBox="0 0 344.6 350" id="camembert"><path d="M168.3 343h-18c-4.9-.7-9.8-1.2-14.7-2.3-65.3-14.5-106.1-54.8-124.1-118.8-2.1-7.4-2.8-15.2-4.2-22.9v-21c.3-.9.8-1.8.9-2.7 2.7-30.4 13.7-57.5 32.9-81.1 27.2-33.3 62-52.2 105.4-54.1 10.8-.5 15 3.6 15 14.3 0 40-.1 80 .2 120 0 3.6 1.5 8.4 4.1 10.5 3 2.5 7.8 3.7 11.9 3.8 39.8.3 79.7.1 119.5.2 8.8 0 13.5 4.6 13 13.3-.4 7.6-.7 15.4-2.4 22.8-14 59.9-52.6 96.1-110.6 112.9-9.4 2.6-19.3 3.4-28.9 5.1z"/><path d="M213.3 7c7.3 1.3 14.7 2.3 21.9 3.9 57.2 12.5 97.4 57.7 103.1 115.9.6 6.3 1 12.6 1.1 18.9.1 7.1-4.1 11.4-11.1 11.4-42.7.1-85.3.1-128 0-7.3 0-11-4.5-11-12.6v-83c0-13.2.2-26.3-.1-39.5-.2-6.9 1.8-12 8.1-15.1 5.4.1 10.7.1 16 .1z"/></symbol><symbol viewBox="0 0 376 316" id="camion"><path d="M144.4 279.8c-5.7-29.3-21.6-44.9-45.6-44.8-24.1.1-40.3 16.1-45.1 44.8-10.7 0-21.5.5-32.3-.2-7.1-.4-12.3-6.9-12.4-14.1-.2-15.3-.2-30.7 0-46 .1-8.7 6.6-14.6 15.7-14.7 18-.1 36 0 54 0h155.2V72.4c0-12 5.7-17.7 17.7-17.7h71c9 0 17.1 3.3 21.3 10.9 8.2 15.1 15.5 30.8 22.2 46.7 2.5 6.1 2.9 13.3 2.9 20.1.2 43.1.1 86.3.1 129.5 0 12.4-5.6 17.9-18 18h-12c-1-15.2-6.8-27.8-19.3-36.6-8.1-5.8-17.3-8.6-27.2-8.3-23.7.8-38.3 15.6-44.1 44.7-34.6.1-69.4.1-104.1.1zm194.5-120.1c0-9.1.7-17.7-.2-26.1-.7-7.3-2.5-14.7-5.1-21.6-3.1-8-7.8-15.4-11.3-23.3-1.4-3.2-3.3-3.9-6.5-3.8-15.6.1-31.3.1-46.9.1H264v74.9h71.5c1 0 2-.1 3.4-.2z"/><path d="M219.1 190.1h-192c-12.7 0-18.1-5.4-18.1-18.3V27.9C9 15.5 14.5 10 27 10h174.4c12.1 0 17.8 5.6 17.8 17.6V184c-.1 1.8-.1 3.6-.1 6.1zM182 96.5C182 57 150 25 110.5 25S39 57 39 96.5 71 168 110.5 168 182 136 182 96.5zm-52.9 183.4c.1 16.5-13.6 30.2-30.1 30.1-16.4 0-29.8-13.4-30-29.7-.2-16.6 13.3-30.3 29.8-30.4 16.5-.1 30.2 13.5 30.3 30zm165 30.2c-16.5.1-30.2-13.5-30.2-30.1s13.6-30.1 30.2-30c16.4.1 29.8 13.5 29.9 29.8.2 16.5-13.3 30.2-29.9 30.3z"/><path d="M110.7 33c35 .1 63.4 28.8 63.3 63.8-.1 35-28.9 63.3-64 63.1-34.7-.2-63.1-28.8-63-63.6 0-34.9 28.7-63.4 63.7-63.3zm20.4 67.1c-5.6 5.9-10.9 10.9-15.6 16.4-1.1 1.3-.4 4-.6 6.1 2.1-.1 4.9.6 6.1-.5 7.9-7.3 15.6-15 23.1-22.8 1.1-1.1 1.2-4.9.2-6-7.8-8.2-15.8-16.2-24-24-.9-.9-4.2-.8-5.1.2-1 1-.9 3.6-.4 5.3.4 1.4 2.1 2.5 3.3 3.6 4.3 4.2 8.5 8.5 13.6 13.6H81.9c-1.5 0-3.3-.5-4.4.2-1.7.9-2.9 2.6-4.3 3.9 1.4 1.3 2.7 2.9 4.3 3.8 1 .6 2.6.1 3.9.1 16.3.1 32.6.1 49.7.1z"/></symbol><symbol viewBox="0 0 323 338" id="elearning"><path d="M11.5 204v-6c7-17.4 14.2-34.7 20.9-52.2 2.6-6.8 4.6-13.8 6-20.9 2-9.9 2.3-20.3 4.9-30 7.5-28.4 25.1-49.7 49.3-65.5C128.1 6.3 166.1.9 205.8 16.8c50.5 20.2 80.8 69.8 76.6 124.1-.6 7.3-2.3 14.4-3.6 22.5-12.3-9.5-23.4-18.2-35-27.2 7.9-4.9 11-11.5 9.5-19.9-.8-4.2-2.8-8.1-4-12.2-.7-2.4-1.6-5.1-1.2-7.4 2.2-13.8-5.1-27.4-17.7-33.2-1.9-.9-3.9-2.6-4.9-4.4-6.7-11.9-17.3-17.2-30.8-15.4-1.5.2-3.5-.7-4.7-1.6-10.3-8.1-20.9-9-32.6-2.8-1.5.8-3.8 1-5.3.4-13.9-5.5-25.4-2.6-35.2 9.2-.9 1.1-2.7 2.2-4 2.2-12.8-.3-24.9 8.2-29 22.4-.5 1.7-1.9 3.4-3.4 4.3-10.6 6.2-15.8 15.5-16 27.5-.5 21.5 20 37.3 39 29.4 6-2.5 10.4-2.8 15.8.3 2.6 1.5 6.2 2.2 9.1 1.7 6.2-1 12.3-3 17.5-4.3 6.5 3.3 12.6 7.7 19.4 9.5 7 1.9 14.7 1.4 22.7 2 5.4 47.8 10.9 96.2 16.4 145 10.8-5.8 21-11.3 31.6-17 .2 1.6.3 2.4.3 3.2v52c0 1.3-.5 2.6-.7 3.9h-130v-37.7c-6.1 0-11.4.1-16.7 0-25.9-.3-44.7-14.5-49.8-38.2-1.4-6.7-1.1-13.9-1.3-20.8-.2-7.6 0-15.2 0-23.3-4.5 0-8.3-.2-12.1 0-6.2.4-11-1.5-14.2-7z"/><path d="M313.5 290c-7.1 4.2-14.2 8.4-21.6 12.8-12.5-20.2-24.8-40.2-37.3-60.5-11.9 6.4-23.7 12.8-36 19.4-5.1-44.9-10-89-15-133.2l1-1c35.6 27.6 71.2 55.2 107.5 83.3-12 6.6-23.5 12.9-35.3 19.3 7.2 11.7 14.2 23.1 21.3 34.5 5.1 8.1 10.3 16.2 15.5 24.3-.1.4-.1.8-.1 1.1zM120 92.5c2.5-4.3 5.4-9.2 8.2-14.1-3.4-2.8-5.9-4.7-8.2-6.8-2.8-2.7-3.4-5.9-.6-8.8 2.7-2.9 5.6-1.8 8.3.6 7.4 6.7 15.7 8.1 24.9 3.9 2.6-1.2 4.4-2.7 3.8-6.1-.6-3.8.5-7.5 5-7.7 4.8-.3 5.7 3.5 6.1 7.5.9 10.7 7.7 18.9 16.4 20.6 2.9-5.5 5.6-10.9 8.7-16.1 1.9-3.1 5-4.9 8.4-2.3 3.5 2.6 2.7 5.9.5 9.2-2.2 3.2-4 6.7-6.4 10.7 10 2.7 17.3 7.6 22.5 15.3.5.8 3 1 4.1.4 1.9-1 3.1-3.2 5-4 2-.8 5.5-1.5 6.6-.4 1.5 1.4 2.4 4.9 1.8 6.9-2 6-11.1 11.5-17.3 10.3-3.1-.6-6.7-2.7-8.4-5.3-5.3-8.1-12.2-12.5-22-12.2-1.8 0-3.6-.4-5.4-.8-6.6-1.6-6.9-1.6-8.8 5.1-2.1 7.4-1.2 14.5 3.1 21 .8 1.2 2.5 2.4 2.5 3.6 0 2.5-.1 5.8-1.5 7.5-2.1 2.5-5.5 1.6-7.2-1.1-2.8-4.6-5.2-9.5-7.6-14.4-.6-1.1-.7-2.5-1.3-4.8-4.1.9-8.2 1.5-12 2.9-3.7 1.3-7 1.9-8.7-2.4-1.6-4.1.5-6.9 4.3-8.1 4.2-1.3 8.6-2.5 13-3 2.7-.3 4.1-.8 4.8-3.7 1-3.7 2.7-7.1 4.3-11-1.9-2.6-4.2-5.6-5.8-7.7-7.9 1.7-15.2 3.2-21.7 4.6-3.8 5.9-7 12.1-11.4 17.3-5.5 6.5-13.2 9.4-21.7 9.6-6.2.1-11.8 1.8-16.4 6.2-2.6 2.4-5.6 3.3-8.3.4-2.8-3-1.9-6.2.8-8.8 5.2-4.9 11.3-8.1 18.6-8.8 1.8-.2 3.5-.4 5.7-1.7-2.5-1.4-5-2.9-7.5-4.3-3.3-1.7-5.4-4.1-3.8-8 1.6-4 5-4.5 8.3-2.6 5 3.3 10 7.1 16.3 11.4z"/></symbol><symbol viewBox="0 0 791.803 791.803" id="etudiant"><path d="M395.904 475.016l-236.203-72.7v121.42c0 56.133 105.787 101.644 236.274 101.644 130.48 0 236.285-45.511 236.285-101.644 0-.442-.145-.886-.154-1.318V402.316l-236.202 72.7z"/><path d="M0 318.734l84.383 30.185 7.191-15.401 31-2.635 4.42 4.599-26.601 6.308-3.877 11.475c-.007 0-60.087 125.604-51.263 187.05 0 0 37.502 22.37 74.988 0l9.962-168v-13.984l55.8-12.588-3.941 9.705-41.604 13.529 19.242 6.874 236.203 72.7 236.201-72.7 159.699-57.116-395.9-152.313L0 318.734z"/></symbol><symbol viewBox="0 0 56.693 56.693" id="facebook"><path d="M40.43 21.739h-7.645v-5.014c0-1.883 1.248-2.322 2.127-2.322h5.395V6.125l-7.43-.029c-8.248 0-10.125 6.174-10.125 10.125v5.518h-4.77v8.53h4.77v24.137h10.033V30.269h6.77l.875-8.53z"/></symbol><symbol viewBox="0 0 281.3 172.7" id="fleche"><path d="M3.7 145L141.2 6.4 277.7 144l-26 23.4L141.7 55 30.3 167.4z"/></symbol><symbol viewBox="-235 400.8 124 40.1" id="fleche1"><path d="M-121.9 423.5c1.4 0 2.3-1.7 3.1-2.8s1.5-2.8.8-4.1c-.1-.3-.6-.3-.9-.2-1 .7-1.4 2.2-2 3.2-.8 1-2 2-1.7 3.4.1.3.4.5.7.5zm5.7-10.9c1.3-.6 1.4-2.5 1.6-3.9s.2-3.2-1-4.1c-.3-.2-.7 0-.9.2-.6 1.1-.3 2.5-.5 3.8-.3 1.3-.9 2.7 0 3.8.2.3.5.3.8.2zm-13.1 18.3c1.2-.7 2.4-2 2.7-3.3.1-.8-.7-1.3-1.3-.8-.8.7-1.6 1.5-2.5 2-.8.5-2.4.8-2.9 1.8-.1.3-.2.6.1.8 1.1 1 2.9.1 3.9-.5zm-13 4.5c1.6-.4 3.3-.8 4.4-2 .5-.6-.1-1.5-.8-1.2-1.3.4-2.7.9-4.1 1.2-1.3.2-2.8.1-4.1.7-.5.2-.6.9-.1 1.2 1.6.6 3.3.4 4.7.1zm-13.2.4c.9-.4.6-.9 1.1-1.6 0-.1 0-.2-.1-.1-.4.2-1.1-.2-1.6-.1-1.2.1-2.5 0-3.6-.2-1.9-.3-4.1-1.3-5.9-.7-.4.2-.5.6-.3 1 1.5 1.9 4.8 2.2 7.1 2.4 1 0 2.3-.2 3.3-.7zm-17.9-3.1c.1 0 .2-.1.1-.2-1-1.1-2.4-2.1-3.9-2.5-1.5-.5-3.1-1.2-4.5-.4-.4.2-.4.7-.1.9 1 1.2 2.7 1.2 4 1.6 1.4.4 2.9.7 4.4.6zm-18.8-5c.8-.1.7-1.4 0-1.6-1.6-.3-3.2-.6-4.8-1-1.5-.3-2.9-.6-4.2.3-.3.2-.3.6 0 .9 1.2.9 2.8.9 4.2 1.1 1.6.3 3.1.5 4.8.3zm-20.8-5c1.6.5 3.3 1 4.9 1 .6 0 .6-.8.2-1-1.2-.7-2.7-1.1-4-1.5-1.3-.4-2.6-1.1-4-1-.4 0-.6.5-.4.8.9.9 2.1 1.3 3.3 1.7zm-11-.1l6.4-9.9-11.7-.2z"/></symbol><symbol viewBox="0 0 116.5 41.9" id="fleche2"><path d="M10 18c-1.4-.4-2.7.9-3.7 1.7-1.1.9-2.3 2.2-2 3.7-.1.4.4.6.7.5 1.2-.4 2-1.6 2.9-2.4 1-.9 2.3-1.4 2.5-2.8.1-.3-.2-.6-.4-.7zm8.6-5.6c-1.2.6-2.6 1.7-3 3-.2.8.5 1.3 1.2.9.9-.6 1.7-1.3 2.7-1.8.9-.4 2.5-.6 3-1.5.1-.2.2-.6 0-.8-.9-1.1-2.8-.3-3.9.2zm14.5-4.3c-1.6.3-3.3.8-4.4 2-.5.5.1 1.4.8 1.2 1.4-.4 2.6-.9 4-1.2 1.3-.2 2.8-.1 4-.7.5-.2.6-.9.1-1.2-1.3-.6-3-.4-4.5-.1zm12.5.3c-.9.4-.6.9-1.1 1.6 0 .1 0 .2.1.1.4-.2 1.1.2 1.6.1 1.2-.1 2.5 0 3.6.2 1.9.3 4.1 1.3 5.9.6.4-.2.5-.6.3-1-1.5-1.9-4.8-2.1-7.1-2.3-1 0-2.3.2-3.3.7zm19 3.9c-.1 0-.2.1-.1.2 1 1.1 2.4 2.1 3.9 2.5 1.5.5 3.1 1.2 4.5.3.4-.2.4-.7.1-.9-1-1.2-2.7-1.2-4-1.6-1.4-.4-2.9-.6-4.4-.5zm14.5 5.2c-.8-.1-1.1 1.1-.5 1.5 1.4.8 2.9 1.5 4.3 2.3 1.3.7 2.6 1.4 4.1 1 .4-.1.5-.5.3-.8-.9-1.2-2.4-1.7-3.7-2.3-1.4-.8-2.8-1.5-4.5-1.7zM96.8 26c-1.5-.7-3.1-1.4-4.8-1.5-.6 0-.7.7-.3 1 1.1.9 2.5 1.4 3.8 2 1.2.6 2.4 1.4 3.8 1.5.4 0 .7-.4.5-.8-.6-1.1-1.8-1.6-3-2.2zm10.6.8l-6.3 10h11.6z"/></symbol><symbol viewBox="0 0 252 341.3" id="globe"><path d="M36.4 59.3C24.1 72.5 19 90.1 15.7 107.5c-3.9 21.1-2.8 42 1.5 62.9.1.3.5.2.5-.1-.1-9.7-1.9-19.3-1.9-29-.1-10.5.5-21 2.1-31.3 2.8-17.5 8.1-36.1 18.7-50.6 0-.1-.1-.2-.2-.1zm94.7 255.5c-5.5-1.6-12-.9-17.6-1.8-6.9-1.1-14.1-3.1-17.4-9.7-.1-.1-.3-.1-.3.1-.6 6.6 7.8 9.5 12.8 10.9 6.4 1.8 15.9 3.6 22.5 1.7.5-.3.5-1 0-1.2zm80.1-16.4c-1.6 1.1-2.9 2.5-4.6 3.5-1.8 1.1-3.9 1.6-5.9 2.2-3.1.9-5.9 1.5-8.4 3.7-.1.1 0 .4.2.3 5.7-2 17.6-1.6 19.4-9.1.2-.4-.3-.9-.7-.6zm-50.3 27.4c-.9.9-1.7 1.7-2.5 2.7-.6.8-1.7 1.9-1.3 3 .1.2.3.4.5.3.9-.3 1.4-1.4 1.9-2.1.8-1 1.6-1.8 2.5-2.7.8-.8-.4-1.9-1.1-1.2zm-8.7 1.7c-.9.9-2.1 1.5-2.5 2.8-.1.3.3.5.5.3.7-.9 1.8-1.6 2.6-2.4.5-.4-.2-1.1-.6-.7zm13-55.4c-1-.4-2.2-.1-3.2-.2-1.1-.1-2.2-.3-3.3 0-1 .3-.9 1.6 0 2 1.9.7 6 1.8 7-.8.2-.5-.2-.9-.5-1zm2.8 3.7c-1.7-1.8-5.2-.6-6.9.6-1.2.9.3 2.5 1.5 1.9 1.6-.8 4.1-.1 5.4-1.6.2-.2.2-.6 0-.9zm2.8 3.5c-1.2-.7-2.3-.5-3.6-.3-1.5.3-3.1.6-4.6 1.2-1.2.5-1.1 2.4.3 2.3 1.5 0 3-.3 4.4-.6 1.5-.3 2.7-.5 3.6-1.8.3-.2.2-.6-.1-.8zm2.2 4.7c-.9-1.3-2.7-.9-4-.5-.8.2-1.5.5-2.3.7-.3.1-.5.2-.7.3-.1 0-.1.1-.1.1-.5.1-.8.8-.3 1.1v-.2c0 .2.1.3.2.4.2.2.4.3.6.4.7.2 1.5 0 2.2-.1 1.4-.2 3.6-.4 4.4-1.7.2 0 .2-.3 0-.5zm.4 3.4c-1.3.5-3.2 0-4.2 1.1-.2.2-.2.5 0 .7.7.7 1.8.7 2.7.5.9-.2 1.6-.7 2.1-1.6 0-.4-.2-.9-.6-.7zm-28-263.2c-2.9.5-4.7 3.1-6.3 5.4-3.1 4.4-5.8 9.1-8.7 13.5-8.1 12.3-15.8 25.1-22.9 38-.3.5.4 1.1.9.7 8.1-9.2 13.7-20.7 20-31.2 2.8-4.7 6.1-9.3 8.7-14.1 2-3.7 4.1-10.3 8.4-11.9.2-.2.2-.5-.1-.4zm10.4.5c-2.5 3.6-4.3 7.5-6.9 11.1-3.2 4.4-6.4 8.7-9.4 13.4-5.6 8.9-11.8 18.1-15.5 28-.2.6.6.8.9.4 6.3-8.5 11-18.3 16.4-27.3 2.5-4.2 5.2-8.2 8-12.2 2.9-4.2 4.2-8.9 6.8-13.2.2-.2-.2-.4-.3-.2zM214 72.8c-.1 0-.1.1 0 0 0 .1 0 0 0 0zM95.9 97.3c-1.9 2.4-4 5-5 7.9-.2.5.6.9.9.5 2-2.1 3.3-5 5.2-7.3.7-.8-.4-1.9-1.1-1.1zm10.3 1.6c-2.3 3.7-5.6 7.5-6.9 11.8-.2.6.7 1.2 1.1.6 1.2-1.6 2.1-3.4 3.2-5.1 1.3-2.2 2.8-4.3 4.1-6.4.7-1-.9-1.9-1.5-.9z"/><path d="M222.5 58.7c-6.5-7.7-14-14.7-22.2-20.5 0-.1-.2-.2-.3-.2-10.1-7-21.3-12.4-33.3-15.2-9.2-2.2-19.1-3-28.6-3.1-5.2-.1-10.8.2-15.9 1.6-7.5-.6-15.3-.2-22.6 1.4-.8-1.8-2.5-3.1-3.9-4.3l-.1-.1c2.8-2.3 2-6.5-.4-9.2-2.4-2.8-6.4-3.1-9.4-1.4-.5.2-1 .5-1.5.7-4.9 2.3-9.8 5-14.3 8C58.6 24 48.1 34 39.3 44c-8.4 9.6-15 20.5-20.3 32-6 12.7-9 25.5-10.5 39.4-1.6 15-2.6 29.4.5 44.4 2.8 13.9 8.4 27.3 16 39.3 7.5 11.7 18.6 21.1 29.3 29.9 10.5 8.7 23.4 14.2 36.2 18.5 17.6 5.9 35.7 7.3 54.1 7 .9 0 1.8 0 2.7-.1-3.1 3.1-5.5 6.8-7 10.9-.1.2-.1.5 0 .7-2.6 1.8-4.1 5-5.2 7.9-.5 1.2-1.1 2.5-1.6 3.8-5.8-.2-11.8 2.2-17 4.3-7.6 3-15 6.9-21.1 12.3-3.4 3-6.6 7.4-6.1 12-.6 2.3-.6 4.8-.4 6.8.5 5.6 3.8 10.2 8.4 13.3 5.8 3.9 13.4 5.2 20.1 6.6 9.4 1.9 18.9 2.9 28.5 3.1 18.8.5 36.4-3.9 54.4-8.8 9-2.5 18.9-7.7 19.8-16l.3-1.2c.8-3.2 1-7.6-.7-10.7 0-5.2-5.3-9.6-9.2-12.3-4.9-3.4-10.9-5.3-16.6-6.9-5.4-1.5-11.4-1.6-16.7-3.2-2.6-4.7-5-11.4-9.7-13.1-.2-4-3.4-8.3-6.8-10.8 3.8-.6 7.5-1.4 11.1-2.7 6.3-2.1 12.9-4.6 17.7-9.4.2.2.5.4.7.4 2.6.7 6.6.2 7.5-2.9.8-2.9-1.9-5.5-2.6-8.1-.5-1.5-.9-3.1-2-4 0 0 .1-.1.1-.2 1.2-2.7 2.4-5.2 3.8-7.8.1-.3.2-.5.2-.8 5.9-3.7 11.6-8 17-12.5.5-.5-.2-1.4-.8-1-6 4.2-12 8.4-18.2 12.2-.2.1-.3.2-.5.3-5.8 3.5-11.7 6.6-18 9-13.1 5.1-27.3 7.2-41.4 6.8-13.5-.4-28.4-3.5-40.8-8.9-12.8-5.6-24.5-16.3-33.5-26.9C37 168.4 31.6 127.5 43.4 93c.2.1.4.1.5 0 3.5-.5 5.3-4.5 6.5-7.3 1.9-4.7 2.6-9.8 4.4-14.5 1.4.4 3.5-.2 4.6-.9 2.1-1.3 3.7-3.5 5.1-5.5 1-1.5 4.9-8.3 2.8-10.5.8-.8 1.5-1.5 2.3-2.2 3-2.8 6.2-5.3 9.6-7.7-1.2 1.2-2.4 2.5-3.5 3.8-1.9 2.3-3.1 5.4-4.4 8C68 63 64.2 68 59.3 73.6c-4.1 4.7-9.9 16.5-2.8 21.1.4.3 1.1.2 1.5-.2 1.6-1.7 3.2-3.4 4.9-4.9 3.6-3.2 7.8-3.2 12.3-2.5 2.7.4 5.2.8 7.9.7 3.5-.1 4.9 1.8 7.5 3.6.1.1.2.1.3.2-3.1-.9-6.9-1.3-8.9 1.7-.4.6.4 1.3.9.9 1.1-.7 2.2-1.1 3.4-1.2-.4 1.5-1.4 2.7-2.3 4-.3-.6-.5-1.3-.7-1.9-.1-.3-.4-.2-.5.1-.1 1.1 0 2.2.2 3.3-.4.7-.6 1.4-.7 2.2 0 .3.4.3.5.1.2-.3.4-.7.6-1 2.7 7.8 13.6 13.9 19.8 17.2 8.8 4.7 19.4-4.5 19.5-13.8.1-8.3-10.8-7.7-16.6-8-2.5-.1-4.8-.5-7-1.1 1.8 0 3.6-.3 5.5-.9 6.1-1.8 12-4.3 17.9-6.5 6.9-2.5 13.6-4 20.9-2.9 7.2 1 14.2 4.5 20.5 7.7 5 2.5 14.9 8.1 17.5-.4.4-1.5-.3-3.6-.9-4.9-1.5-3.3-1-7.1-.8-10.6.7-10.3 10.7-6.7 16.9-3.8 2.9 1.3 5.9 2.5 8.3 4.5 1.7 1.5 3.3 3 5.1 4.4 2.7 2 5.9 2.2 8.5.1 5.7-4.4-5.8-17.3-7.8-20.7-1.7-2.9-3.9-6-5-9.2-.6-1.9-1-3.8-1.5-5.8 5.8 4.7 11.1 10 16 15.5 5 5.6 9 12.5 12.5 19.5-.4-.4-.9-.7-1.4-1 .1-.2.3-.4.4-.5.2-.3-.1-.6-.4-.4-.2.2-.5.4-.7.6-1.2-.4-2.7-.4-3.9-.1-.8.2-1 1.1-.7 1.7-1.6 1.8-2.1 4-2.3 6.4-.7 1.1-1.4 2.2-2 3.3-.2.4.2.9.6.6.5-.4.9-.8 1.4-1.2 0 .9.1 1.9.2 2.8-.2.4-.5.9-.7 1.4-.2.4.4.6.7.4l.1-.1c.1 1.1.1 2.1.1 3.1v.4c0 .1 0 .1-.1.2-.1.2 0 .3.1.5.1 1.1.3 2.1.7 3.1-.2.3-.3.6-.5.9-.2.3.2.7.5.4l.4-.4c1.3 2.3 3.7 3.5 7 1.4 3.9-2.4 1.6-9.6.9-13-.5-2.8 1.3-5.2.9-7.9.7 1.5 1.5 3.1 2.2 4.6 3.1 6.7 4.9 13.9 5.8 21.3-4.3 2-3.6 18.2-4 20.3-.1.4-.2.9-.3 1.3-1 1.8-1.6 3.6-1.5 5.5-2 6.9-3.6 13.9 2.7 19.1-.2.9-.4 1.9-.6 2.8-2.1 9.7-4.4 17.7-9.3 26.6-1.3 2.3-8.1 13.5-7.8 13.1 12-14.8 17.2-28.9 19.3-37.3 3-12.3 5.3-24.6 5.5-37.3.4-22.8-8.4-46.2-23.5-64zm-141 11.1c-.1-.1-.3-.1-.4-.2-1-.4-2.5-.8-3.9-.9 5.3-5.8 9.4-12.5 13.7-19 2.2-3.2 4.3-6.5 6.5-9.7 1.7-2.5 3-5.4 4.9-7.8 3-1.2 6.1-2.2 9.2-3.3-10.9 12.7-22.9 25.6-30 40.9zm1 4.4c.3 3.2-8.9 4.8-11.1 5.4-1.6.4-3.3.9-5 .9-1.7 0 .1-2.2.5-2.8 1.9-2.8 4.6-5 6.9-7.5.1-.1.1-.2.1-.2 0 .1.1.3.2.4 1.9 1.6 8.1.2 8.4 3.8zm26.4-47.9c-8.8 2.8-17.2 6.6-25.1 11.4 2.3-2.5 5.1-4.4 8.1-6 4.2-2.4 11.1-4.9 17-5.4zm-12.3-2.8c-.9.2-1.7.5-2.5.8-2.4.8-4.9 2-7.3 3.5-.5-1.4-1.1-2.8-.6-3.8.8-.4 1.6-.9 2.4-1.3.8-.2 1.7-.3 2.4-.4 1.2-.2 2.4-.5 3.5-.9.6.6 1.3 1.4 2.1 2.1zm77 306.8c1-.9 1.8-2.3 2.6-3.3 1.8-2.4 3.5-4.8 5.7-6.8.5-.4-.1-1.2-.7-.9-2.2 1.5-4 3.3-5.8 5.4-1.4 1.6-3.6 3.9-3.9 6-.8.1-1.6.3-2.4.4 1-.8 1.8-2 2.5-2.9 1.5-1.9 2.7-4 3.9-6.1.5-.7-.6-1.3-1.1-.7-1.2 1.6-2.3 3.2-3.6 4.8-.7.9-1.5 1.8-2.3 2.7-.7.7-1.3 1.2-1.6 2.2v.3c-1.5.2-2.9.4-4.4.6l.1-.1c2.1-2.8 4.3-5.4 7.3-7.2 1.1-.7.1-2.4-1-1.8-3.3 1.9-6.1 4.7-8.1 7.9-.2.3-.2.8 0 1.1.1.1.1.2.2.3-2.6.3-5.3.5-8 .6-14.9.6-30.1-1.2-44.4-5.1-5.4-1.4-10.9-3.6-14.5-8.2-1.1-1.4-2.4-4.8-3-8.2 5.2 7.2 17 8.5 24.9 9.9 22.6 3.9 46.9 1.3 69.3-2.9.4-.1.7-.1 1.1-.2-1.7 1.9-3.2 3.8-4.7 5.8-1.5 1.9-3.4 3.7-4.8 5.7-1 .3-2.2.5-3.3.7zm16-3.6c-.9.2-1.8.5-2.7.7 2.5-2.8 2.9-7.6 6.3-9.7.4-.2.1-1-.3-.8-1.9.8-3.1 2.3-4.2 4-1.4 2.2-2.9 4.6-4 7-1.6.4-3.2.7-4.7 1.1 3.4-2.8 5.6-7.7 8.1-10.9.1-.1.1-.2.1-.3 3.1-.6 6.1-1.3 9.1-2.2-1.3.8-2.3 2.2-3.2 3.4-1 1.4-1.8 2.9-2.6 4.3-.7 1.2-1.5 2.2-1.9 3.4zm2.6-.7c.8-1.2 1.4-2.7 2.1-3.8 1.4-2.6 2.7-4.7 5-6.6.2-.1.1-.4 0-.6.7-.2 1.4-.4 2.2-.7-1.4 1.7-2.5 3.6-3.7 5.5-1.1 1.9-2.7 3.7-3.8 5.7-.7.2-1.2.4-1.8.5zm5-1.3c.4-.5.7-1.1 1.1-1.6 1.8-2.8 3.2-5.9 5.3-8.6.3-.3.3-.7.1-1 .5-.2 1-.4 1.4-.5-1 1.1-1.8 2.4-2.7 3.7-1.3 2-3.7 4.6-4.1 7 0 .2.1.5.3.6-.4.1-.9.3-1.4.4zm8.4-2.5c.9-.4 1.7-1 2.3-1.8 0 .1-.1.2-.1.3 0 .2 0 .4.1.5-2.5 1.2-5.3 2.1-8 2.8 1.7-1 2.7-3.2 3.7-4.8 1.5-2.5 2.8-5.1 4.9-7.3.1-.1.2-.2.2-.4.7-.3 1.5-.7 2.2-1.1-.8 1.3-1.6 2.6-2.3 3.9-1.2 2.2-2.5 4.1-4.1 6-.5.8 0 2.3 1.1 1.9zm6.3-9c-.6 1.4-1.2 2.8-2 4.2-.2.4-.5.7-.7 1 .2-.3.4-.7.6-1 1.4-2.7 2.5-5.5 3.9-8.1.1-.2.1-.3.1-.5.4-.3.9-.6 1.3-1-1.4 1.6-2.3 3.4-3.2 5.4zm-20.5-30c7.2 2.1 14.3 4.6 20 9.7 6 5.3 4.5 10.1-1.9 13.9-13 7.6-30.2 9-44.9 10.7-15.8 1.8-31.7 2.4-47.5.2-7.1-1-27.5-3.6-23.9-14.7 2.4-7.3 12.5-12 18.7-15.1 6.6-3.3 13.4-4.9 20.2-7.3-1.8 3.7-4 7.1-6.9 9.9-1 .9-.5 2.3.4 3 7 5.4 16.9 6.2 25.4 6.3 5.6.1 11.2-1.2 16.6-2.6 4.2-1.1 9.4-1.7 13.4-3.5 6.6-3 1.7-9.1-1.5-13 3.8 1.1 8.1 1.4 11.9 2.5zm-16.7-2.5c1.6 2 3.2 4 4.7 6.1 2.6 3.9-2.1 4-5 4.5-8.8 1.5-16.5 4.8-25.7 4.6-6.5-.1-13.6-1-19.2-4.3 2.9-3.2 5-7.1 6.9-10.9 1.3-2.5 2-5.2 3.2-7.7 1-2.1 2.5-3.3 4.1-4.7 2.3.5 4.8.2 7.2-.1 5-.7 10 .1 14.9-.9 4.4 3.2 5.6 9.1 8.9 13.4zm-11.1-16.9c-3.6.5-7.2 0-10.8.4-2.7.3-5.9 1.3-8.6.6 1.3-3 3.3-5.6 5-8.4 2.5.2 6.7.3 9-.3 2.4 2.1 5 4.7 5.4 7.7zm27.2-38.8c0 .3.1.6.2.8-.4-.1-.8-.1-1.3 0 .4-.3.7-.6 1.1-.8zm-2.1 4c3.1-1 2.9 2.1 3.7 4.2.4 1 .8 1.9 1.4 2.8 1.1 1.9-.1 2.5-2 2.5h-1.6c-.1-.1-.1-.2-.2-.3-.4-2.3-2.4-4.9-4.4-6.2 0-.1-.1-.3-.1-.4-.1-.2-.2-.5-.4-.7l-.1-.2c0-.1 0-.2-.1-.3v-.1c1.3-.3 2.5-.9 3.8-1.3zm-7.8 5c.9-.2 1.9 0 3 .6 1.6 1 2.2 3 3.2 4.4-10.6 9.3-27.1 11.5-40.6 12-15.2.5-30.3-.4-45.1-4-14.2-3.4-28.9-9.1-40.9-17.6-6-4.2-11.2-9.4-16.7-14.3-6-5.4-11.3-11.1-15.9-17.8-8.4-12.6-13.6-27.3-16.4-42.1-2.9-15.9-.8-32.4 1.4-48.2 3.7-27.2 19.7-53.7 40-71.8 6.9-6.2 13.6-12.5 21.4-17.6.8-.5 5.1-3.4 8.9-5.4 1-.2 1.9-.5 2.9-1 1.2-.7 2-.3 3.4-.1l1.2.3c1 1.7 2.7 4 1.6 5.2-1.6 1.6-4.2 2.6-6.2 3.6-.5.2-1 .4-1.5.8-5 2.6-9.8 6.3-14.2 9.7C59.6 39 51.3 49.9 43.9 61.3c-15.1 23.4-22.6 51.1-21.5 78.8 1 25.9 11.7 50.4 29.8 68.9 8.4 8.6 18.4 15.4 29.1 20.7 12.6 6.3 25.8 11.6 39.7 13.9 10.4 1.7 21.5 1.6 32 .5 9.9-1 19.8-3.7 27.8-9.8 0-.2 0-.2.1-.3zm-3.8-6.1c-.3.2-.5.5-.6.7-.2-.1-.4-.1-.6-.2.4-.2.8-.4 1.2-.5zM50.9 80c-1 2.7-2.6 9-5.7 10.8 1.3-2.7 2.9-5.5 3.4-8.4.1-.4-.3-.8-.7-.8 1.8-3.7 3.8-7.2 6-10.7.1.1.3.2.5.2-1.5 2.9-2.4 6-3.5 8.9zm13.8-21.6c-.6 2.2-1.8 4.1-3.1 5.9-1 1.4-2.2 2.8-3.5 4-.9.8-2.2.9-3.3 1.3 3-4.5 6.4-8.7 10.1-12.7 0 .5-.1 1-.2 1.5zm9-13.8c-3.8 2.9-7.5 6.1-10.8 9.5C45.8 71.6 36.5 95.9 34.4 120c-2.1 24.4 4.4 49.4 18 69.7 7.2 10.8 16.7 19.9 27 27.6 10.7 8 22 12 35 14.8 17.3 3.7 34.6 3.6 51.7-.7 2-.5 4-1.1 5.9-1.7.9 1.1 2.9 1.6 4.3 1.9.6.2 1.2.4 1.9.5-11.3 7.2-24.3 9-37.5 9.2-14.8.2-28.6-2.3-42.3-7.6-25.4-9.8-46.7-25.2-60.3-49.1C8.5 132.7 32.9 59.5 80.5 27.2c.8-.5 1.6-1 2.5-1.5.2 1.4.6 2.8 1.1 3.9-4.8 3.6-8.9 8.5-10.5 13.9-.1.4-.1.8.1 1.1zm13.6 58c-1.2-1.4-2.2-2.8-3-4.4.3-.6.6-1.1 1-1.7.6-1.1 1.1-2.1 1.2-3.3 2.1-.1 4.4.6 6.6 1.4-1.2 1.6-2.5 3-3.8 4.6-.7 1-1.6 2.1-2 3.4zm25.4-4.2c-1.9 4.4-5.6 7.8-7.5 12.2-.2.4.3.9.6.5 3.2-3.6 6.3-8 8-12.6 1.9.3 3.6.9 5 2 2.8 2.2-.6 7.3-1.9 9.5-1.2 2-2.9 3.7-4.9 5-3.4 2.2-7.2 0-10.2-1.7-1.8-1-3.8-2.2-5.8-3.5.2 0 .3-.1.4-.2 1.3-2.2 1.9-4.7 3.4-6.9 1.1-1.6 2.3-3.1 3.4-4.6 2.8.2 6.3-.1 9.5.3zm-11.1-.6c-3.1 3.3-7.3 7.6-6.1 11.7-2.6-1.8-5.2-3.7-7.3-6 1.1-1.6 2-3.3 3.3-4.9 1-1.2 1.9-2.3 2.8-3.5 2.5 1.1 5 2.2 7.3 2.7zm75.7-19.5c-.1 2.8.1 5.1.6 7.8.4 2.3 2.7 3.6.6 6.3-1.4 1.8-4.2 1.3-6 .9-5.3-1.2-10.4-5-15.3-7-5.7-2.4-11.9-5-18.2-5.5-6.6-.6-12.8 1.6-18.9 3.8-5.9 2.1-11.8 4.5-17.8 6.4-4.5 1.4-8.4-.1-11.9-3-1.3-1.1-2.9-2.1-4.6-2.3-3.4-.4-6.7.1-10.1-.4-2.6-.4-5.1-.6-7.7-.3-2 .2-3.8 1.2-5.5 2.3-.8.5-1.6 1.3-2.3 1.9-1.2 1.1-3.1 4.6-4.2 1.4-1.7-5.1 2.9-12.3 6-15.9 4.4-5 7.8-9.2 10.5-15.4 2.6-6 5.8-10.9 9.3-16.3 1.7-1.1 3.5-2.2 5.3-3.2-2.1 3-5 5.6-7 8.6-3.1 4.8-6.2 9.7-8.7 14.8-.2.4.3.6.5.3 3.3-4.7 6-9.8 9.1-14.6 2.1-3.4 5.1-6.2 7-9.7l4.5-2.4c-1.9 2.5-3.5 5.5-5.2 7.9-5.2 7.1-11 14.1-15 22-.2.5.4 1 .7.6 4.4-5.4 8.2-11.4 12.3-17.1 2.1-2.9 4.2-5.8 6.1-8.9 1.1-1.8 2-3.7 3.1-5.4l1.8-.9c1.5-.7 2.9-1.3 4.4-1.9-3.1 3.3-5.5 7.6-7.9 11.1-5.9 8-11.8 16.1-17 24.5-.7.1-1.3.3-1.7.7-.1.1-.2.2-.2.4 0-.2-.2-.5-.5-.4-3.7 1.3-8.1 5.6-9.6 9.2-2.3 5.5 5.5 4.1 8.3 3.5 4.2-.9 12.8-2.5 13-7.9.1-1.7-1-2.9-2.3-3.7 10.2-13.8 19-28.7 30-42 1.7-.5 3.4-1.1 5-1.6-5.5 7.6-11 15.2-16.6 22.8-6.1 8.2-13.4 16.6-16.2 26.5-.1.5.6.8.8.3 10.2-17.1 21.9-33.4 33.1-49.9 1.8-.6 3.7-1.2 5.5-1.8-12.9 14.8-23.7 31.6-32.3 49.3-.3.5.4.9.8.4 11.9-16.1 20.3-34.6 33-50.2 1.1-.4 2.2-.7 3.3-1.1.9-.1 1.9-.1 2.8-.2-3 3.1-5.2 7.1-7.7 10.6-3.6 5-7.5 9.8-11.1 14.9-7.7 10.8-16 22-21.7 34.1-.2.4.4 1 .7.6 7.5-9.6 13.7-20.4 20.5-30.4 3.5-5.2 7.2-10.2 10.8-15.3 3.1-4.4 5.3-10.3 8.9-14.4 2.3-.1 4.7-.1 7 0h.1c-6.7 9.9-14.5 19-20.9 29.1-6.7 10.6-13.7 21.5-18.5 33.1-.2.4.5.6.7.3 7-10.4 13-21.7 19.5-32.4 5.9-9.6 12.8-18.6 18.5-28.3.4-.5.9-.9 1.2-1.5 0-.1-.1-.1-.1-.1-.2.4-.5.7-.8 1 .2-.4.5-.8.7-1.3 4.3.1 8.7.4 13 .9-2.7 1-4.7 2.9-6.4 5.3-3.4 4.8-6.4 9.9-9.7 14.9-6.8 10.4-15 21.2-19 33.1-.2.6.7 1 1 .4 5.8-9.1 11-18.7 16.8-27.8 2.9-4.6 5.8-9.2 8.5-14 2.3-4.1 4.4-9.8 9-11.8 3 .3 5.9.8 8.8 1.3-7.1 5.3-10.3 14.9-15.1 22.1-6.8 10.1-15.8 20.5-18 32.8-.1.5.6.8.8.3 4.6-10.6 10.7-20 17.1-29.6 2.8-4.2 5.3-8.6 7.5-13.2 2.1-4.4 4.3-9.1 8-12.4 1.6.3 3.2.6 4.8 1 .3.1.7.2 1 .3-5 5.2-7.7 12.3-11.5 18.4-5.9 9.3-12.4 18.4-17.7 28-.3.5.4 1 .8.6C146.2 66.5 151 57.4 156 49c2.2-3.7 4.4-7.3 6.3-11.2 1.8-3.9 3.4-7.9 6.3-11.1 1.9.5 3.9 1.1 5.7 1.8-12.1 12.9-22.2 29.7-28.7 46.1-.2.6.7.9 1 .4 9.9-15.2 16.9-31.7 28.3-46 .1-.1.1-.2.1-.3l3.9 1.5c-3.2 8.1-9.9 14.9-14.7 22-5 7.5-10.2 15.3-13.3 23.8-.3.7.8 1.1 1.2.5 5-8.2 9.4-16.8 14.7-24.9 4.5-7 9.6-13.4 12.3-21.3 1.8.7 3.5 1.5 5.2 2.4-6 6.9-10.1 15-15.1 22.6-5.7 8.7-12.6 17.4-16.1 27.3-.2.5.5.7.7.3 5.6-8.1 10.6-16.8 15.9-25.1 5.2-8.1 8.9-17.3 15-24.9 1.8.9 3.5 1.9 5.2 2.9-5.5 6.1-10.3 12.6-14.8 19.6-4.9 7.7-10.2 15.4-14.2 23.5-.3.5.4 1.1.8.7 5.4-5.9 9.2-13.4 13.3-20.2 4.8-7.9 9.6-16 15.4-23.2l3 1.8c-.7 2.3-2.9 4.1-4.4 5.9-1.9 2.1-3.2 4.6-4.7 7-3.4 5.4-6.9 10.9-9.9 16.6-.3.5.4 1.1.8.6 4.3-4.8 7.3-10.8 10.5-16.4 1.8-3.1 3.6-6 5.8-8.8 1.1-1.4 2.1-2.8 2.5-4.5 1.2.8 2.4 1.6 3.5 2.4-2.7 4-6.8 7.4-9.4 11.4-3.2 5-7.1 10.1-8.9 15.8-.2.5.3.8.7.7-1.4 2.3-2.5 5.6-2.6 9.6zm7.9-11.7c-1.5.2-2.7.7-3.8 1.5 3.8-5.1 6.7-11 10.1-16.3 2.1-3.3 4.9-6.2 7-9.6.1.4.5.7 1.1.8.1 0 .2 0 .3.1-2.2 2.1-3.6 5.2-5.5 7.6-3.6 4.4-7.3 10.5-9.2 15.9zm29.4 4.3c1.5 2.2 3.1 5 2.7 7.7-.7 4.7-6.9-.2-9.5-2.5.9-1.3 1.2-3.1 1.9-4.5s1.6-2.7 2.6-4c.7 1.1 1.5 2.2 2.3 3.3zm-3.3-4.7c-1.2 1.4-2.3 2.8-3.2 4.4-.7 1.2-1.6 2.7-1.7 4.2-1-.9-2.2-1.7-3.5-2.4 2.2-3.1 4-6.4 6-9.6.8 1.2 1.6 2.3 2.4 3.4zm-5.1-7.6c.6 1.1 1.3 2.2 2 3.2-.1 0-.2.1-.3.2-2.1 3.1-4.9 6.3-5.8 10-1.1-.6-2.3-1.2-3.6-1.7 3.1-3.5 5.6-7.6 7.7-11.7zm-.7-1.2c-2.6 4.1-5.9 8-7.8 12.5-2.1-.9-4.2-1.6-6.1-2.3-1.7-.6-3.3-1-4.7-1 3.3-3.9 5.7-8.6 8-13 1.6-3.1 3.3-6.9 5.6-9.9.5.5.8 1.3 1.2 2.2-2.6 5.1-6.7 9.5-8.6 14.9-.1.4.5.8.7.4 3.3-4 6.3-9 8.3-14 .4 1.3.7 2.8 1 4-2.4 5.8-7.9 9.9-9.5 16-.1.4.5.7.7.3 3.1-4.6 7.1-9.1 9.3-14.3.1.3.2.6.3.8.4 1.2 1 2.3 1.6 3.4zm21.3 24.1h1.5c-.9.9-1.7 1.9-2.5 2.9.1-.9.5-1.9 1-2.9zm-1.4 6.6c1.5-1.9 2.8-4.1 4.2-6.2.7.4 1.1.9 1.2 1.7-1.1 1.4-2.3 2.8-3.3 4.2-.6.8-1.3 1.7-2 2.6-.1-.8-.1-1.6-.1-2.3zm.2 4.5c.7-.9 1.3-1.9 1.9-2.8 1.1-1.6 2.2-3.2 3.3-4.7 0 .8-.2 1.7-.4 2.6-1.6 2.2-3.3 4.4-4.7 6.7 0-.6 0-1.2-.1-1.8zm.4 7c-.1-.7-.1-1.4-.1-2.1 1.5-2 2.9-4.1 4.3-6.2.1.6.2 1.1.3 1.7-1.4 2.2-3.1 4.3-4.5 6.6zm.4 1.7c1.8-2 3.2-4.3 4.5-6.7.3 1.7.6 3.4.6 5.2-.1 2.5-3.7 4.6-5.1 1.5zm15.8 10.1c.4 3.5.5 7 .6 10.5-.5 1.5-1.3 2.9-2.2 4.3.1-1.1.2-2.3.2-3.5.1-3.5-.7-8.2 1.4-11.3zm-1.5 34.3c-.2-.2-.6-.3-.8.1-.6 1-1.3 2-1.9 3.1-.2.3.3.8.6.4.7-.9 1.3-1.8 2-2.7-.4 2.2-.8 4.3-1.2 6.5-1.2-1.9-2.5-3.5-2.9-5.8.2.1.4.1.6-.1 1.8-2.2 3.2-4.9 4.6-7.5-.4 1.9-.7 4-1 6zm1.3-9.5c-.3 0-.6.1-.8.4-1.5 3-3.9 6-4.9 9.2 0-1.8.2-3.5.7-5.3.1.2.4.2.6.1 2.1-1.8 3.5-4.5 4.7-7.1l-.3 2.7zm.6-6.9c-2.1 3.3-4.1 6.9-5.4 10.4.6-2.2 1.3-4.4 1.9-6.4.2-.6.3-1.1.4-1.7.5-1.1 1-2.3 1.6-3.4.7-1.3 1.3-2.6 1.7-3.9 0 1.8-.1 3.4-.2 5z"/><path d="M54.6 98l-2.6 2.6c-.3-1-.8-2-1.3-2.9.3-.6.6-1.2.9-1.9 0-.1-.1-.2-.2-.2-.5.3-1 .7-1.5 1-.8-.8-1.9-1.3-3.1-1-.3.1-.5.4-.4.7.2.4.3.8.5 1.1-.5-.3-1.1-.2-1.3.5-1.1 3.3-2.5 6.4-3 9.9-.4.9-.8 1.8-1 2.8-.1.4.4.6.6.3.1-.2.2-.4.3-.5.5 3 3.6 4.9 6.7 3.2 2.8-1.6 3.7-4.7 3.7-7.8l.1-.1c.4-.4.2-.8-.1-1.1 0-.4-.1-.7-.1-1-.1-.5-.2-1.2-.4-1.9 1-1.1 1.9-2.1 2.9-3.1.5-.4-.2-1-.7-.6zm-4.6 6.6c.1.6.1 1.3.1 1.9-1.5 1.4-3.2 2.9-4.1 4.6-.2-.1-.3-.3-.4-.6 1.4-1.7 2.5-3.7 3.9-5.4.2-.1.3-.3.5-.5zm-2.7-3.9c.1-.4.1-.9.2-1.3v-.3c.1 0 .2-.1.3-.2l.6.9c-.4.5-.8 1.1-1.2 1.6 0-.2 0-.5.1-.7zm-1.1 4.2c0-.1.1-.3.1-.4.2-.3.4-.5.5-.8.7-1 1.3-1.9 2-2.9.3.6.6 1.3.8 2.1 0 .1 0 .2.1.3-.4.4-.8.8-1.1 1.2-1.1 1.3-2.2 2.6-3.2 4 .2-1.4.7-2.9.8-3.5zm87.1 92.6c-1.7-6.4-7-10.7-7.8-17.6-.3-2.8-.2-5.4-.8-8.1-.7-3.4-1.9-6.6-2.4-10-1-7.6-.8-15.8 2.9-22.6 2.9-5.4 6.6-12 3.9-18.2-1.7-3.8-10.6 1.4-12.7 2.1-6.6 2.3-12.3.9-17.7-3.5-3.3-2.7-5.7-6.2-9.3-8.6-3.9-2.6-6.7-8-11.1-8.8 0-.2-.1-.4-.4-.4-4.5 0-10 1.1-13.8 3.6-1.3.9-2.4 2.2-3.4 3.4-2.8 3.8-5.4 5-9.8 6.2-11.4 3.1-8.7 14.7-8.2 23.7.4 8.1 1.1 17.4 6.5 23.9 2.2 2.7 5.9 3.9 9.3 4 2 0 3.9-.7 5.9-.9 3.6-.2 6.2 5.9 8.1 8.3 3.6 4.6 7.7 8.4 12.8 11.2 6.9 3.8 14 5.3 20 10.6 6.2 5.5 16.1 16.6 25.4 11 3.4-1.8 3.4-6 2.6-9.3zm-13.1 6.6c-3.1-1.3-5.7-3.5-8.2-5.8-4.7-4.2-8.9-8.6-14.9-11.1-7-2.9-13.3-5.3-18.8-10.6-3.9-3.8-6.4-10.4-11.4-12.9-3.5-1.7-7.8 1-11.5-.3-5.4-1.8-7.3-7.8-8.4-12.8-1-4.5-1.2-9.2-1.4-13.8-.3-6.5-2.3-14.1 3.7-17.8-1.3 1.6-2.4 3.4-3.1 5.1-.1.4.4.7.7.4 2-2.3 3.5-4.9 5.6-6.9 3.2-1 6.5-1.7 8.7-4.4-4.5 7.4-11.5 13.4-14.9 21.4-.2.4.3.7.6.4 5.4-7.7 11.9-15 15.9-23.5.1-.1 0-.2-.1-.3 1.7-2.2 3.9-4 6.3-5.4-1.4 1.9-2.6 4.6-3.4 5.9-4.3 6.4-9.5 12.5-13.1 19.4-.3.6.5 1.4 1 .8 4.3-4.9 8-10.5 11.6-16 1.8-2.6 3.5-5.3 5.2-8 .7-1.1 1.7-2.3 2-3.6.5-.2 1.1-.4 1.7-.6 0 .3 0 .5.1.8-4.6 4.3-7.9 10.4-10.8 15.8-3.3 6.2-6.3 12.7-8.2 19.5-.2.5.7.9.9.4 3.2-6.2 5.7-12.7 8.9-18.9 3-5.9 6.6-11 10.5-16.2.5-.1.9-.2 1.3-.2-1.4 2.8-3.4 5.1-5 7.8-2.4 3.8-4.6 7.7-6.7 11.6-4.1 7.3-7.9 14.8-11.3 22.5-.2.6.5 1 .8.5 5.2-8.1 9.6-16.8 14.2-25.2 1-1.8 9-16.6 9.8-16.9.7.2 1.2.6 1.8 1-1.4 3.2-3.5 5.6-5.4 8.5-2.6 3.7-4.7 7.7-7 11.5-3.8 6.5-7.6 13.2-10.5 20.2-.3.7.8 1.1 1.2.5 4.8-7.3 8.6-15.4 12.8-23.1 2-3.6 4-7.2 6.3-10.7 1.5-2.2 2.6-4.1 2.9-6.7.8.7 1.5 1.5 2.2 2.4-4 5.5-6.7 12.3-9.8 18.3-4 7.6-8.8 14.8-12.6 22.5-.3.6.5 1.4 1 .8 5.1-6.2 8.9-13.5 12.6-20.6 1.9-3.7 3.6-7.5 5.4-11.3 1.5-3 2.1-6.3 3.9-9.2 1.1 1.2 2.2 2.2 3.4 3.1-.1.1-.3.2-.4.2-.3.2 0 .6.2.4 1.3-.6-1.3 1.8-1.5 2-1.4 2-2.6 4.1-3.9 6.1-2.2 3.7-4.3 7.5-6.3 11.3-3.7 7.1-7.4 14.4-9.5 22.1-.2.6.8 1 1 .4 3.6-7.1 6.6-14.5 10.1-21.6 3.5-6.9 7.5-13.6 10.9-20.5.5.4 1 .8 1.6 1.2.6.5 1.2 1 1.8 1.6-4 5.1-6.7 10.8-9.5 16.7-3.4 7.2-7.6 14.5-9.5 22.3-.2.6.8 1.1 1.1.5 3.4-6.5 6.1-13.5 9.2-20.2 2.8-6.2 5.1-13.3 9.1-18.9 1.1 1 2.2 2 3.2 3.1-.1 0-.1 0-.1.1-6.2 12.9-13.9 25.5-18.8 39-.2.6.7.9 1 .4 7.8-12 12.5-26.1 18.2-39.2v-.1c1 1 2 1.9 3 2.8-4.1 6-7.5 12.2-10.6 18.8-3.3 6.9-6.9 14-9.2 21.3-.2.6.7.9 1 .4 4.2-6.3 6.8-13.8 9.9-20.7 2.9-6.5 6-13 9.5-19.2 1.6 1.3 3.4 2.5 5.4 3.4 4.8 2.1 10.2.8 15-.8 1.8-.6 3.5-1.5 5.4-2.2 4-1.5 3.3 4 2.7 6.5-1 4.4-3.6 8-5.5 12.1-.1-.3-.6-.4-.8-.1-2.9 6.1-5.5 12.3-7.9 18.6-2.8 7.4-5.9 15.1-7.3 22.9-.1.6.7 1 1 .4 2.9-6.1 4.6-13 6.7-19.4 2.1-6.5 4.4-12.9 7-19.2-.2.7-.4 1.4-.5 2.2-.8 5.6-.5 12.4.6 17.9.7 3.5 2 6.7 2.4 10.3.3 2.6 0 5.2.5 7.8.5 2.7 1.7 5.1 3.2 7.5-.2 0-.3.1-.4.3-1.5 3-3.3 6-4.3 9.3-.1.4.4.6.7.3 1.9-2.7 3.3-5.8 4.7-8.7 1.5 2.5 3.1 4.9 3.8 7.7 2.1 7.2-6.7 6.2-10.4 4.6z"/><path d="M102.7 127.1c-4.7 4.8-8 10.6-10.8 16.7-2.9 6.1-5.9 12.4-8.1 18.8-.3.8.8 1.1 1.2.5 3.8-5.5 6-12.2 8.6-18.3 2.6-6.1 5.6-12 9.6-17.3.3-.3-.2-.7-.5-.4zm6.2.2C99 142 90.5 158.6 85.6 175.7c-.1.5.6.8.8.3 8.1-16 14.2-32.9 22.7-48.7 0 0-.1-.1-.2 0zm2.5.5c-5 15.1-15.4 28.3-18.9 43.9-.1.5.7.9.9.4 6.8-14.3 14.6-28.8 18.1-44.2.1-.2-.1-.2-.1-.1zm5.9-.1c-4.6 5.3-7.4 12.1-10 18.6-3.7 9.4-8.5 19.1-11 28.8-.2.8.8 1.2 1.2.5 4.6-7 7-15.8 9.9-23.6 2.8-7.7 5.1-17.6 10.2-24.1.2-.1-.1-.4-.3-.2zm8.4-4c-9.9 17.9-21.1 37.2-24.6 57.6-.1.5.6.9.8.4 4-9 6.8-18.6 10.6-27.8 4.2-10.1 8.5-20.3 13.8-29.8.2-.5-.4-.9-.6-.4zM118 161c-4.3 8.7-8.3 18.7-10.5 28.2-.1.5.6.8.9.4 5.4-8.2 6.5-19.1 10.6-27.9.3-.7-.7-1.3-1-.7zm.3 8.4c-3.4 6.4-6.7 14-7.9 21.3-.1.6.7 1 1 .4 3.7-6.4 4.8-14.2 8.2-20.9.5-.9-.8-1.7-1.3-.8zm2 7.5c-2.4 5.2-5.4 11.1-6.3 16.8-.1.6.6 1 1 .4 3-4.9 4.4-11.1 6.7-16.4.4-.9-1-1.7-1.4-.8zm.9 7.2c-1.6 4.1-5 8.6-4.7 13.2 0 .6.8.7 1 .1.9-2.4 1.6-4.9 2.7-7.2.9-1.9 1.8-3.8 2.6-5.7.4-.9-1.2-1.4-1.6-.4zm25.6-27.8c0-.5-.5-.9-1-.8-1.7.6-2.6 1.1-3.5 2.6-.2.3.2.5.4.3 3.3-3.1 2.7 1.7 2.7 2.9.1 1.7.4 3.3.6 5 .3 2 .8 4.1 1.1 6.3l-1.5 1.8c-.7.9-1.7 2.1-1.6 3.3 0 .4.5.6.7.3.9-.8 1.3-2.1 1.9-3l.6-.9c.2 1.5.2 3.1-.1 4.6-.9 5.5-7.1-1.8-7.6-2.7-.3-.5-.5-1-.7-1.5.7-1.7 1.2-3.5 2-5.1 1.1-2.4 2.6-4.6 4.1-6.8.5-.8-.7-1.4-1.2-.7-.4.6-.9 1.2-1.4 1.9.5-1.4.9-3 .9-4.5 0-.5-.7-.5-.9-.1-1.3 3.3-3.6 5.4-5.2 8.5-.9 1.7-1.8 3.6-1.5 5.6.6 4.5 4 9.1 8.6 10 3.8.7 5.1-3.5 5.1-6.3.2-6.9-2.4-13.7-2.5-20.7z"/><path d="M144.7 168.7c-1.1 1.9-4.9 5.5-2.9 7.8.2.2.4 0 .4-.2.1-1.6.3-2.7 1-4.1.6-1.1 1.4-2.1 1.9-3.3.3-.2-.2-.5-.4-.2zm-.9-79.5c-1.5-.7-4 .3-5.1 1.4-.9.8.1 2 1 1.8.8-.1 1.5-.4 2.3-.7.7-.3 1.7-.7 2.1-1.4.2-.4.1-.9-.3-1.1zm8.5 3.6c-1.1-.8-2.6.1-3.6.7-.6.4-1.8 1.2-1.8 2.1 0 .1-.1.2-.1.4 0 .7.7.8 1.1.4.6-.1 1.4-.7 1.9-.9.9-.4 2.2-.8 2.7-1.7.2-.5.1-.8-.2-1zm12.4 4.3c-.9-.4-2.1.5-2.8 1-.4.3-.8.5-1.1.8-.1.1-.2.2-.4.3 0 0 0 .1-.1.1-.6.1-.4 1 .1 1 .2 0 .5.1.7.1.5 0 1-.2 1.5-.3 1-.3 2.5-1.1 2.5-2.3.1-.3-.1-.5-.4-.7zm22.9-20c-.8-.3-1.6.3-2.1.9-.4.5-.8.9-1.1 1.5-.3.7.3 1.3 1 1 .5-.2.9-.5 1.4-.8.5-.4 1.3-.8 1.4-1.5 0-.5-.2-.9-.6-1.1zm2.1 8.1c-1.1-.4-2.8.5-3.5 1.4-.3.4-.4.9-.2 1.3.3.5 1 .7 1.5.4.9-.6 2.3-1.1 2.6-2.3.2-.4-.1-.7-.4-.8zM128 89c-1-.1-1.9.6-2.7 1.2-.8.6-1.6 1.1-2.4 1.7-.8.6-.6 2 .5 2 1.1-.1 2-.6 2.9-1.2.9-.7 2-1.5 2.4-2.6.2-.6-.2-1-.7-1.1zm-60.4 2.3c-.8-.9-2.2-.2-3.1.3-1.1.6-1.9 1.4-2.4 2.6-.2.6.5 1.3 1.1 1.1 1-.4 1.9-1 2.9-1.5.7-.6 2.4-1.5 1.5-2.5zm7.1-.1c-1-.3-1.9.2-2.6.8-.6.5-1.2 1.2-1.3 2v.2c-.1.7.7 1.3 1.3.7 0 0 .1 0 .2-.1.2-.1.3-.2.4-.4l.7-.7c.6-.5 1.3-.8 1.8-1.5.1-.4-.1-.9-.5-1zm6.3-1c-.2 0-.2.4 0 .4.2-.1.2-.4 0-.4zm53.1 54.6c-.7-.1-1.4.1-2 .3-.4.2-.8.3-1.2.5-.2.1-.1 0-.4.2 0 0-.2.1 0 0-.5.1-.9.3-1 .8-.1.5.2 1.2.7 1.3 1.5.2 3.6-.9 4.3-2.3.1-.3 0-.7-.4-.8zm-3.1 6.5c-1.2-.2-2.2.8-3.1 1.5-.6.5.1 1.5.8 1.3 1.1-.3 2.2-.9 2.8-2 .2-.4-.1-.8-.5-.8zm.4 13.6c-.7.2-1.3.3-2 .6s-1.4.7-1.9 1.3c-.6.6 0 1.4.7 1.3.7-.1 1.5-.5 2.1-.9.6-.3 1.2-1 1.5-1.6.2-.4 0-.9-.4-.7zm.4 9.8c-.5-.4-1.1-.1-1.7.2-.4.2-.7.4-1 .6l-.2.2c-.3 0-.6.3-.6.6v.3c0 .1 0 .1.1.2l.1.1c.2.3.5.4.9.5.4 0 .9-.2 1.3-.4s1.1-.6 1.3-1c.3-.4.3-1-.2-1.3zM66 173.3c-.9 0-1.8.4-2.6.7-1 .4-1.9.7-2.7 1.3-.5.3-.3 1.2.3 1.2 1.7 0 4.7-.5 5.5-2.3.2-.5-.1-.9-.5-.9zm6.5 7.4c-1.6 0-3.2.7-4.3 1.9-1 1.1.5 2.5 1.6 1.6 1.1-.9 2.5-1.3 3.3-2.5.3-.5-.2-1-.6-1zm17.1 7.7c-.9-.2-1.6-.1-2.5.2-.5.1-.9.3-1.3.5-.5.2-.6.6-.9 1-.1.3 0 .7.3.8.3.1.7.3 1.1.2.4-.1.9-.3 1.3-.5.8-.4 1.5-.7 2.1-1.4.4-.3.3-.7-.1-.8zm6.7 6.1c-.8-1-2.6.3-1.8 1.3v.1c0 .6.8.6.9.1.2-.1.2-.2.3-.3.1-.1.2 0 .3-.1.2-.1.3-.2.4-.4.1-.3.1-.5-.1-.7zm14.8 8.9c-.6-.1-1.1 0-1.7.1-.6.2-1.4.5-1.6 1.1-.1.3 0 .6.3.7.6.3 1.2 0 1.7-.2.6-.2 1.2-.5 1.5-1.1.2-.2.1-.5-.2-.6zm15.8 6c-.9.3-1.8.7-2.6 1.2-.9.5-1.7 1.2-2.5 1.8-.5.4-.1 1.1.5.8 1.8-1 3.7-1.5 5.1-3.1.2-.3-.1-.8-.5-.7zm9.8-.2c-.3-1.2-2-.6-2.7-.1-1 .7-.4 2.4.9 2 .8-.3 2.1-.9 1.8-1.9zM218.5 88c-.2-.5-.6-1-1-1.5-.3-.4-.6-1-1-1.4-1-.8-2.5-.1-2.2 1.3.2.7.7 1.2 1.1 1.8.5.7 1 1.4 1.4 2.2-.3.1-.8 0-.9-.1-.7-.3-1-1.4-1.4-2-.5-.8-1.6-.2-1.4.6.3 1.3.7 2.5 1.9 3.2 1 .7 3.1.6 3.8-.6.7-1.2.2-2.4-.3-3.5zm5.8-16.1c-.4-.5-1.4-.5-1.8 0-.4.4-.4 1-.4 1.5-.2.3-.2.8.1 1 .1.1.3.2.5.3.6.4 1.5.2 1.7-.6.2-.5.2-1 .2-1.4 0-.1.1-.1.1-.2.4-.3 0-.7-.4-.6zm-93.8 25.9c-1-1.7-4.7-4.5-6.5-2.4-.2.2-.3.6-.1.9.5.7 1.1.9 1.9 1.2.7.3 1.3.6 1.9 1-.7.5-1.6.8-2.4.3-1.2-.6-1.7-2-2.4-3.1-.3-.5-1-.3-1 .3 0 1.9 1.2 4 2.9 4.8 2 .9 3.9-.2 5.4-1.4.5-.6.5-1.2.3-1.6zm55.9-1c-.7-1.3-2.1-2.7-3.5-3.2-.9-.3-1.4.7-1.1 1.4.4.8 1.2 1.4 1.9 2-.4.1-.8.1-1.3.1-.6 0-1.7-.3-1.3-1.1.1-.2-.2-.5-.4-.3-1 1-.8 2.1.4 2.8 1.4.9 3.5.6 4.9-.2.6-.3.7-1 .4-1.5z"/></symbol><symbol id="graph" viewBox="0 0 327 364"><style>.aost0{fill:#fff}</style><path d="M8 115c1.9-10.7 6.9-19.3 16.6-24.7 8-4.5 16.8-3.7 25.4-3.3 1.3.1 2.6 1.9 3.6 3.1 5 6.2 9.9 12.5 15 18.7 3.7 4.6 5.1 4.5 8.8-.2 4.9-6.1 9.9-12.2 14.6-18.4 1.9-2.5 4-3.6 7.2-3.4 26.2 1.6 52.5 3.1 78.8 4.6 9.8.6 19.6 1 29.4 1.9 9.1.9 14.2 9.5 10.6 17.3-1.9 4.2-5.2 7-9.9 7.4-12.6 1-25.2 1.9-37.8 2.8-15.3 1-30.6 2.1-45.8 2.9-2.9.2-4.1 1.2-4.4 4.1-4 38.1-8 76.1-12 114.2-3.7 34.3-7.4 68.5-11.1 102.8-.7 6.6-4.7 10.4-10.9 12.1h-26c-7.2-1.9-10.4-6.5-11.2-13.9-4.5-43.4-9.3-86.7-14.2-130-.2-1.9-1.9-4.2-3.5-5.2-7.2-4.4-12.1-10.4-13.3-18.9-1.7-11.7-3.2-23.4-4.8-35.1-1.8-11.2-3.4-22.5-5.1-33.8v-5zm273 242c-7.4-2.5-9.7-7.8-9.7-15.4.2-60.4.1-120.8.1-181.2 0-10.6 3.8-14.4 14.4-14.4h17.5c11.4 0 13.1 1.2 16.7 12v187c-1.1 5.9-4.3 10-10 12h-29zm-65 0c-7.4-2.6-9.7-8-9.6-15.5.2-33.1 0-66.3.1-99.4 0-11.8 3.8-15.6 15.5-15.6 6.3 0 12.7-.1 19 0 9.5.1 13.7 4.3 13.7 13.7 0 33.8-.1 67.6.1 101.4.1 7.6-2.3 12.9-9.7 15.4H216z"/><path class="aost0" d="M8 120c1.7 11.3 3.3 22.6 4.9 33.9 1.7 11.7 3.1 23.4 4.8 35.1 1.2 8.5 6.1 14.4 13.3 18.9 1.7 1 3.3 3.3 3.5 5.2 4.9 43.3 9.7 86.6 14.2 130 .8 7.4 4 12.1 11.2 13.9h-52C8 278 8 199 8 120z"/><path d="M151 357c-6.9-2.8-9.5-7.7-9.4-15.2.4-20.5.1-41 .1-61.5 0-10.8 3.7-14.4 14.4-14.4h22c6.8.1 11.6 4.3 11.7 11 .2 22.8.1 45.7 0 68.5 0 6-4.1 9-8.9 11.5-9.9.1-19.9.1-29.9.1zM74 5c3.7.8 7.5 1.4 11.1 2.6 16.1 5.2 25.8 21.1 23.9 38.8-1.7 15.9-15.5 29.1-31.8 30.9C57.7 79.4 41 65.9 38 48.3c-3.5-19.6 8.1-37.3 27.3-42 2.2-.5 4.5-.9 6.7-1.3h2z"/><path class="aost0" d="M310 357c5.7-2 8.9-6.1 10-12v12h-10z"/></symbol><symbol viewBox="0 0 430.117 430.117" id="li"><path d="M430.117 261.543V420.56h-92.188V272.193c0-37.271-13.334-62.707-46.703-62.707-25.473 0-40.632 17.142-47.301 33.724-2.432 5.928-3.058 14.179-3.058 22.477V420.56h-92.219s1.242-251.285 0-277.32h92.21v39.309c-.187.294-.43.611-.606.896h.606v-.896c12.251-18.869 34.13-45.824 83.102-45.824 60.673-.001 106.157 39.636 106.157 124.818zM52.183 9.558C20.635 9.558 0 30.251 0 57.463c0 26.619 20.038 47.94 50.959 47.94h.616c32.159 0 52.159-21.317 52.159-47.94-.606-27.212-20-47.905-51.551-47.905zM5.477 420.56h92.184V143.24H5.477v277.32z"/></symbol><symbol viewBox="19 11 546 483" id="like"><path d="M263.9 492h-188c-32.5 0-54.9-22.5-55-55V291.5c0-31.8 22.7-54.5 54.5-54.5 41.2 0 82.3.2 123.5-.2 7.1-.1 14.4-2.1 21.3-4.3 7.4-2.4 12.9-7.5 17-14.6 14.5-24.9 29.6-49.4 44.3-74.2 10.7-18 20.3-36.5 22.9-57.6 1.3-10.2.9-20.7 2.5-30.8C311 28.8 335.6 10 362.6 12c26.5 2 47.9 24.5 48.3 51 .3 20.3.2 40.7 0 61-.2 14.7-4.1 28.5-10.4 41.8-5.2 10.9-10.2 22-14.8 33.2-2.5 6.1-1 7.8 5.6 7.8h115c43.1 0 67.9 42.1 47.1 79.8-.8 1.4-.6 4.2.2 5.6 15.2 27.1 6.6 58.1-20.7 73.4-2.6 1.4-3 2.9-2.6 5.5 3.4 22.1-6.8 43.1-26.3 53.9-3.3 1.8-4.2 3.5-3.6 7.3 4.3 25.6-14.2 53.7-38.6 58.7-2.9.6-6 .7-8.9.7-63 .3-126 .3-189 .3zM234 259.2c-16.5 8.3-33.2 8-49.9 7.8-11.3-.1-22.7-.1-34 0-14.7 0-24.1 9.3-24.1 24v147c0 14.7 9.4 24 24.1 24h173.4c1.4 0 2.8-.2 4.6-.3-5.7-8.9-8.3-18-6.7-28 1.6-9.9 6.8-17.7 14.4-24.2-9.7-8.2-14.9-18-14.8-30.3.1-12.2 5.6-21.9 14.8-29.6-12.6-11-17.9-24.3-13.2-40.2 5-17.2 17.6-25.8 35.2-27.6-10.3-17.4-9.9-36.2 8.4-52.9-7.1-6.6-12-14.7-11.5-24.5.4-7.7 2.3-15.5 5-22.7 3.5-9.3 8.5-18 12.8-27 5.4-11.2 8.7-22.9 8.6-35.6-.2-17.7 0-35.3-.1-53 0-13.9-9.6-24.1-22.6-24-12.8 0-22 10.1-22.5 23.7-.4 9.8-1 19.7-2.5 29.3-3.6 23.3-14 43.9-25.9 63.9-16.6 27.7-33.4 55.3-49.9 83-3 5.1-5.7 10.6-7.6 16.2-7.4 22.5-4.6 44 7.2 64.4 2.8 4.8 2 8.9-1.9 11.3-3.9 2.4-8.1 1.1-10.9-3.6-2-3.4-3.9-7-5.5-10.6-8.3-19.1-10-38.8-4.9-60.5zM118.5 267H74.7c-14.1 0-23.6 9.5-23.6 23.5-.1 12.2 0 24.3 0 36.5v111.5c0 12.7 8.7 22.9 20.6 23.3 15.1.5 30.3.1 45.5 0 .2 0 .4-.5.6-.9-5.6-7.9-6.9-16.9-6.9-26.5.2-46.8.2-93.7 0-140.5 0-9.3 1.4-18.1 7.6-26.9zm315 30c-25 0-50-.1-75 0-12.7.1-22.6 10.1-22.5 22.6.1 12.2 9.8 22.3 22.3 22.3 50.2.1 100.3.2 150.5-.2 4.6 0 9.8-2.3 13.7-5 7.8-5.4 10.4-15.6 7.4-24.6-3-9-11.4-15.2-21.3-15.2-25.1 0-50.1.1-75.1.1zm15-60H390c-13.9 0-24.1 9.6-24 22.6.1 12.8 10.2 22.3 23.8 22.4h117.5c13.6 0 23.7-9.6 23.8-22.4.1-13-10.1-22.6-24-22.6h-58.6zm-29.8 120h-58c-2.2 0-4.4 0-6.5.4-11.4 2.3-19.1 12.5-18.2 24 .9 11.5 10.6 20.6 22.5 20.6 39.5.1 79 .1 118.5 0 13.9 0 24.1-9.6 24-22.6-.1-13-10.2-22.3-24.3-22.3-19.3-.1-38.6-.1-58-.1zM403 462h43.5c14.3 0 24.5-9.5 24.5-22.7-.1-12.9-10.2-22.3-24.3-22.3h-86.5c-14 0-24.2 9.4-24.2 22.4 0 13 10.1 22.6 24 22.6h43z"/></symbol><symbol viewBox="0 0 333.8 334" id="loupe"><path d="M8.9 125c1.3-6.8 2.2-13.8 3.8-20.5C26.5 46.7 79.6 6.2 138.8 8.1c61.5 1.9 112.7 47.7 120.8 108.6 4.4 32.8-3.4 62.7-22.4 89.8-1 1.5-2.1 3-3.2 4.5-.1.1-.1.3-.4.9 1.1 1.1 2.3 2.5 3.5 3.7 27.6 27.7 55.3 55.5 83 83.1 3.7 3.7 6.4 7.6 5.9 13.1-.5 5.8-3.7 9.6-8.6 11.9-4.9 2.3-9.8 1.7-14.1-1.7-1.4-1.1-2.7-2.4-4-3.7-27.5-27.4-54.9-54.9-82.3-82.4-1.3-1.3-2.2-2.9-2.5-3.3-12.6 6.5-23.6 13.5-35.5 18.2-66.7 26.2-143.3-11.2-164-79.7-2.8-9.1-4.1-18.7-6.1-28.1v-18zm222.8 8c-.2-52.8-44.4-96.4-97.4-96.1-52.9.2-96.4 43.6-96.4 96 0 54.4 43.3 98.1 97 97.9 53.4-.1 97-44.2 96.8-97.8z"/><path d="M132 56.5c2.3.3 5.3.3 7.9 1.1 6.3 2.2 9.8 8.2 9.2 14.9-.6 6.5-5.6 11.3-12.2 12.6-8.1 1.6-16.7 2.4-23.9 5.9-16.4 7.9-25 21.9-26 40.2-.6 10.2-5.8 16.4-14.2 16.6-8 .2-14.4-5.8-14.7-13.8-1.8-35.3 27-70.3 62.5-76 3.6-.6 7.2-.9 11.4-1.5z"/></symbol><symbol id="mail" viewBox="0 0 349.3 297"><style>.st0{fill:#fff}</style><path d="M194.6 293h-1c-.4-.7-.7-1.5-1.2-2.1-14.1-17.3-28.2-34.6-42.4-51.8-5.8-7.1-11.6-14.1-17.4-21.2-19.2 9.8-38 19.5-57.4 29.4.1-1.7.1-2.5.2-3.3 2.9-23.6 6-47.2 8.5-70.9.6-5.8 3.1-9.1 7.6-12.4 13.6-9.6 26.8-19.7 40.2-29.7 10-7.4 20-14.9 30-22.3-1.2-.4-2.2-.2-3.1 0-30 8.5-60.1 17-90.1 25.7-3.4 1-5.3.5-7.6-2.3C44.6 111.5 28.1 91 11.7 70.5c-.8-.9-1.3-2-2.2-3.4 2.3-.5 4.1-.8 5.9-1.1 48.8-8.4 97.7-16.9 146.5-25.3C207.3 32.8 252.7 25 298 17c14.6-2.5 29.1-5.3 43.6-7.9l2 2c-.6 1-1.3 1.9-1.9 2.9-33.7 63.8-67.4 127.6-101 191.3-15.4 29.1-30.7 58.4-46.1 87.7z"/></symbol><symbol viewBox="0 0 354 283" id="mains"><path d="M9 120v-4c5-14.6 9.9-29.2 14.9-43.7 4.2-12.2 8.5-24.5 12.9-36.7 2.9-7.9 8.6-11.9 15.2-9.3 10.7 4.3 20.9 9.9 31.3 15-8 18.4-10.9 37.3-13.1 56.4-1.2 9.9 3.6 17 13.1 20.3 14.9 5 33.4-.1 44-12.5 3.7-4.4 7.7-9.1 9.8-14.3 3.9-9.4 9.6-13.1 20.1-12.9 14.4.2 28.6-1.2 40.9 8.4 1.7 1.3 3.8 2 5.7 3 15.8 8.5 32.3 15.9 47.3 25.6 20.7 13.6 40.4 28.8 60.3 43.6 3.3 2.4 6.1 5.7 8.3 9.2 7.4 11.5.4 27.1-13.2 29.1-5.3.8-10.7.1-16 .1 3 12.4.4 20-10.2 24.5-4.8 2-10.6 2.6-15.9 2.5-4.4 0-8.8-1.9-13.4-3.1 1.4 9.9.6 18.7-8.7 24.3-8.3 4.9-17.1 6.1-26.2 2.7-2.1 12.9-5.3 16.7-18.2 21.9h-7c-1.7-.6-3.4-1.2-5.1-1.7-7-2.3-7.8-3.4-7-10.4 2.3-20.5-4.2-31.2-22.6-36.8-.1-1.9-.2-3.8-.3-5.8-.6-11.8-7.5-21.2-19.1-23-8.2-1.2-15-2.7-18.6-10.8-.3-.7-1.2-1.1-1.9-1.6-7.5-6-16-6.7-25.1-3.9-4.6-8.8-10.8-15.4-20.9-17-10.1-1.6-17.9 3.2-25 9.9-6.4-19.2-7.4-20.8-19.1-30.6-2.8-2.3-6.1-4.2-8.6-6.9-3-3.6-5.7-7.6-8.6-11.5z"/><path d="M348 122c-2.7 2.8-5.2 5.9-8.3 8.3-6.3 4.9-12.8 9.6-19.4 14-1.3.8-4.2.7-5.5-.3-7.8-5.3-15.5-11-23.1-16.6-10-7.4-19.5-15.7-30.2-22.1C244.2 94.9 226 85.7 208.2 76c-1.2-.6-2.5-1.1-3.5-1.9-14.3-11.4-31.1-10.9-47.9-9.8-5.5.3-11 .7-16.5.5-3.8-.1-5.6 1.6-7.3 4.7-4.6 8.3-9.1 16.7-14.4 24.5-6.8 10-16.9 12.9-28.5 11.2-5.3-.8-6.6-2.5-5.7-7.8 2.4-13.2 4.9-26.5 7.7-39.6 3.2-15.2 13.1-25.7 27.5-29.6 24.8-6.7 50.1-11.8 75.3-17 4.3-.9 9.3.3 13.7 1.4 12.9 3.1 25.9 6.2 38.6 9.9 9.1 2.6 18 5.8 26.7 9.6 7.5 3.3 14.4 3.2 21.5-.4 3-1.5 6-2.8 9-4.2 8.2-3.8 14.9-1 17.7 7.6 5.8 17.7 11.4 35.4 17.1 53.1 2.9 9 5.9 18 8.8 27v6.8zm-200 97.9c-.5 8.4-3.9 16.7-8.7 24.3-4.4 6.9-13.8 8.4-20.8 4.1-7-4.4-9.7-13.4-5.5-20.4 3.7-6.3 8-12.2 12.6-17.9 3.8-4.8 10.1-5.9 15.4-3.8 5 1.8 7.2 5.9 7 13.7zm-72.1-2.7v-1.5c.4-7.8 13.2-24.3 20.6-26.6 8.2-2.6 15.6 2.4 15.4 11-.2 11.1-5.3 20.5-11.9 29-3.4 4.4-10.4 5.5-15.1 3.1-6-3.1-8.8-8.3-9-15zm4.6-26.6c-.6 3.8-.9 6.7-1.5 9.7-1.6 8-7.3 12.4-15.3 11.8-7.3-.5-13.6-6.5-14-13.8-.4-7.2 1.6-13.8 6.2-19.5 7.5-9.3 18.2-7.7 22.6 3.4 1.2 2.8 1.5 6 2 8.4zm90.6 61c.2 7.2-2 13.3-8.8 16.5-5.5 2.6-11.1 1.4-15.9-2.3-7.3-5.6-7.5-16 0-23.6 2.6-2.7 6.4-4.9 10.1-5.9 9.5-2.7 14.6 2.9 14.6 15.3z"/></symbol><symbol viewBox="0 0 339 210" id="ordi"><path d="M7.9 192.4c2.8-.2 5.6-.5 8.3-.5h130.6c1.9 0 3.7.6 5.6 1 9.1.3-4.4.8 19.9 1 2.2 0 11.8-.3 14-.5V192c-2.9 0-11.5-.1-14.8 0-12.5 0-17.2-.6-19.1.8 1.5-.9 3-2.6 4.5-2.7 8.8-.3 17.7-.7 26.4 0 48.2 3.7 96.5.7 144.7 1.5 1.3 0 2.6.4 3.8.6v9H7.8c.1-2.8.1-5.8.1-8.8zm300.1-4.2H31.9v-163c0-11.8 4.1-15.8 16-15.8h244.4c11.4 0 15.7 4.3 15.7 15.6v163.2zm-9-9.2V17.7H40.9V179H299z"/><path d="M117 97.2c.3-13 4.7-24.3 13.6-33.9 3.3-3.6 4.9-2 5.3-1.8.4.8 1.8 1.8-1.2 5.4-15.9 18.9-16 42.2.1 60.9 1.1 1.3 3 3.9 1.4 5.4-2.2 1.4-4.2-.5-5.4-1.6-9.2-9.6-13.6-21.1-13.8-34.4zm96-.1c-.2-11.4-4.2-21.3-11.7-30-1.1-1.3-2.1-4.4-1.4-5.2 2.2-2.7 4-.2 5.6 1.4 17.7 18.7 17.6 49.9-.2 68.1-1.1 1.1-3.5 2.5-4.5 2-3.7-1.8-1.4-4 .3-5.8 7.8-8.6 11.9-18.7 11.9-30.5z"/><path d="M204.7 97.3c-.2 9.3-3.1 17.7-9.6 24.5-1 1.1-3.4 2.6-5 1.5-1.6-1.2-.2-3.9.7-5 10.9-14.1 10.9-27.8 0-41.9-.9-1.2-2.6-3.6-.7-5 2.1-1.5 3.9.4 5 1.5 6.5 6.7 9.4 15.1 9.6 24.4zm-73.6-1.4c.2-7.9 3.1-16.3 9.6-23 1-1.1 3.3-3 5-1.5 2.1 1.5.1 3.9-.8 5-10.8 13.9-10.8 28.3 0 41.9 1 1.2 2.4 3.6 1 5.1-1.8 1.5-4.2-.5-5.3-1.6-6-6-9.5-15.5-9.5-25.9zm37 9.8c-4.8.1-8.7-3.5-8.7-8.2 0-4.7 3.8-8.5 8.5-8.5 4.5 0 8.3 3.6 8.5 8.1.2 4.6-3.5 8.5-8.3 8.6z"/><path d="M155.1 79.6c2.2 1 2.3 3.9.6 5.5-6.4 8.3-6.4 16.4.1 24.6.6.8 1.4 2.8 0 3.9-1.9 1.5-3 .4-3.9-.2-8.6-6.1-8.8-25.5-.3-31.9.7-.5 2.7-2.3 3.5-1.9zm35 17.1c0 6.3-2.7 11-5.3 15.7-.5.9-2.8 2.2-4.6 1.2-1.2-1-.4-3.5.4-4.7 5.7-8.6 5.7-14.5 0-23-.8-1.1-1.9-3.4-.4-4.7 1.8-1.2 3.8.4 4.6 1.1 2.9 2.9 5.3 8.1 5.3 14.4z"/></symbol><symbol viewBox="0 0 315.3 226" id="player"><path d="M159.1 4.9h92c30.1 0 53.3 19.7 58.1 49.2.5 2.9.6 6 .6 9 0 34.5.2 69-.3 103.5-.4 28.7-24.9 53.1-53.8 54.3-12 .5-24 .2-36 .2H66.2c-30.2 0-53.3-19.5-58.4-49-.4-2.6-.6-5.3-.6-8 0-34.7-.5-69.3.3-104C8.4 28.7 33.6 5.1 65.2 5c31.3-.2 62.6-.1 93.9-.1zm-36.2 158.2c26.5-16.9 52.3-33.3 78.7-50.1-26.7-17-52.4-33.3-78.7-50v100.1z"/></symbol><symbol viewBox="0 0 297 297" id="pro"><path d="M148.51 117.216c32.317 0 58.608-26.291 58.608-58.608S180.827 0 148.51 0c-32.317 0-58.608 26.291-58.608 58.608s26.291 58.608 58.608 58.608zm78.644 28.402c-.025-.008-.073-.026-.098-.032-7.631-1.864-30.999-5.133-30.999-5.133a5.194 5.194 0 0 0-6.406 3.188l-35.174 96.509c-2.029 5.567-9.903 5.567-11.932 0l-35.174-96.509a5.195 5.195 0 0 0-4.876-3.42c-.504 0-24.531 3.369-32.53 5.358-21.858 5.435-35.645 26.929-35.645 49.329v80.302c0 12.034 9.756 21.79 21.79 21.79h184.782c12.034 0 21.79-9.756 21.79-21.79v-80.569c-.001-22.303-14.328-42.096-35.528-49.023z"/><path d="M161.775 138.613c-1.404-1.53-3.456-2.299-5.532-2.299h-15.485c-2.076 0-4.129.77-5.532 2.299a7.183 7.183 0 0 0-.946 8.462l8.278 12.479-3.875 32.69 7.631 20.3c.744 2.042 3.631 2.042 4.375 0l7.631-20.3-3.875-32.69 8.278-12.479a7.186 7.186 0 0 0-.948-8.462z"/></symbol><symbol viewBox="0 0 343 371" id="rouage"><path d="M338 225c-3.3 5.3-5.8 11.2-9.9 15.9-23.6 27.4-47.6 54.4-71.2 81.8-12.2 14.1-27.5 20.2-45.9 20.1-35.5-.2-71 0-106.5-.1-3.4 0-6 .8-8.3 3.4-5.2 5.6-10.6 11-16.3 16.8-24.2-23.6-47.9-46.6-72-70.1 3.1-2.9 5.8-5.4 8.4-7.9C30 271.3 43.6 257.6 57.4 244c24-23.6 52.1-30.2 84-19.6 7.2 2.4 14.3 3.6 21.9 3.6 19-.2 38-.2 57 0 11.2.1 20.4 8.2 21.6 18.3 1.3 11.2-5.3 21.3-16.3 24.3-2.7.7-5.6.8-8.4.9-11.7.1-23.3 0-35 0-1.7 0-3.3 0-5 .3-4.8.8-7.6 4-7.4 8.5.2 4.4 3.3 7.6 8.1 7.9 5.2.3 10.3.2 15.5.2 9.2 0 18.3.2 27.5-.2 19.2-.9 33.7-14 37.4-32.8.6-3.1 2.1-6.3 4.1-8.7 11.8-13.6 23.6-27.2 35.9-40.3 10.7-11.3 28.7-9 36.3 4.2 1.4 2.4 2.1 5.1 3.2 7.7.2 2 .2 4.4.2 6.7z"/><path d="M205 9c8.1 1.4 12 6.4 12.5 14.4.1 1.7.6 3.3.7 4.9.3 4.1 2 6.7 6.4 7.4 1.9.3 4 1 5.6 2.1 5.5 4.1 10.1 3 14.9-1.4 2.5-2.3 5.7-4.3 9-5.2 8.8-2.3 24.9 12.9 22.6 21.7-1.3 4.8-4.6 9.1-7.7 13.2-2.2 3-2.5 5.4-.7 8.5 1 1.6 2.2 3.2 2.4 4.9.9 8.3 6.4 10.1 13.6 11.1 11.9 1.7 14 4.8 14 17v4.5c-.1 9.9-2.9 13.7-12.8 14.9-7.9.9-12.4 3.6-15.4 11.9-2.5 7.1-2.4 11.5 2.2 17.2 7.5 9.5 6.9 13.5-1.9 22.3-1.8 1.8-3.5 3.6-5.3 5.3-4.7 4.2-10.3 5.2-15 1.1-7.8-6.9-15.1-8.4-24.7-3-4.3 2.4-6.4 4.5-7.2 9.1-2.5 16.3-4.4 17.8-20.9 17.8-11.2 0-14.9-2.6-16.4-13.5-1-7.6-3.7-11.7-11.5-14.7-7.4-2.9-12.1-2.6-18.1 2.2-8.8 7-13.2 6.2-21.2-1.8-12.1-12.1-12.4-13.8-2.2-27.7 3-4.1 3.6-7.4.7-11.5-.7-.9-1.3-2-1.5-3.1-1.1-7.6-5.7-10.1-13-11.1-12.6-1.7-14.7-4.8-14.7-17.4 0-2.2-.1-4.3 0-6.5.5-7.1 3.8-11.7 10.7-12.2 9.6-.7 15.3-4 18.3-13.9 1.7-5.6 2.5-9.4-1.5-13.7-1.6-1.7-2.8-3.7-4-5.7-3.2-5.3-2.8-10.2 1.2-14.7 2.9-3.2 6-6.3 9.2-9.2 4.5-4 10.2-5 14.5-.9 8 7.5 15.6 8.2 25.1 2.9 3.9-2.1 6.5-3.8 6.7-8.3.1-1.5.5-3 .7-4.4.6-7.9 4.5-13 12.6-14.3C197 9 201 9 205 9zm-48.3 100.2c.2 23.6 19 42 42.9 42.1 22.5.1 41.7-19.5 41.5-42.5-.1-22.9-19.1-42.1-41.4-42.1-24.1 0-43.2 18.9-43 42.5z"/><path d="M199.3 131.7c-12.6.2-23.1-10.1-23.2-22.6-.1-12.4 10.4-22.9 22.9-22.9 12.2 0 22.5 10.3 22.6 22.6.2 12.3-10.1 22.8-22.3 22.9z"/></symbol><symbol viewBox="0 0 317 336" id="share"><path d="M311 56v4c-.6 2.7-1.1 5.4-1.7 8.1-8.3 38-53.1 53.1-82.6 27.8-2.2-1.8-3.8-2.6-6.6-1-37 20.3-74.1 40.6-111.3 60.7-3 1.6-3.1 3.5-2.9 6.5.4 4.4.7 9 0 13.4-.6 3.8.4 5.7 3.7 7.5 36.7 19.9 73.4 39.9 110 60 2.8 1.5 4.6 1.3 7-.8 29.5-25.3 74.2-10.2 82.6 27.8.6 2.7 1.1 5.4 1.7 8.1v4c-.6 2.7-1.1 5.4-1.7 8.2-6.1 27.7-31.7 44.6-59.5 39.5-24.6-4.5-43.4-29.6-40.2-54.1.7-5.1-.1-7.6-4.8-10.1-36-19.4-71.9-39-107.8-58.7-3.6-2-5.7-1.4-8.7 1.1-28.4 24.3-72.8 9.4-81.3-27.1l-2.1-9.6v-4c.5-2.6 1-5.1 1.5-7.7 7.7-38.2 52.9-53.7 82.6-28.3 2.7 2.3 4.6 2.3 7.5.6 6.7-3.9 13.7-7.5 20.6-11.3 29.6-16.2 59.3-32.3 88.9-48.5 2.6-1.4 4.4-2.7 4-6.4-.6-5.2-.7-10.6.1-15.8 3.5-23.6 23.9-41.4 47.9-42.3 23.6-.8 45.2 15.7 50.6 38.6 1.1 3.1 1.8 6.4 2.5 9.8z"/></symbol><symbol viewBox="0 0 307 308" id="share-fb"><path d="M153.7 302C72 302.1 6.1 235.8 6 153.6 5.9 72.6 72.1 6.2 153.1 6c81.5-.2 147.8 66 147.9 147.7.1 81.8-65.8 148.2-147.3 148.3zm-30.2-50.3h38.2V150.9h29.6c.7-9.9 1.4-19.3 2.2-29.2h-31.9v-21.5c.1-7.1 2.8-10.7 9.9-11.2 6.8-.5 13.8.3 21.2.6 1.4-8.3 3-17.2 4.3-26.2.1-1-1.9-3.1-3.1-3.2-11.9-1.2-23.8-3-35.7-2.7-18.1.4-30.6 11.4-33.5 28.9-1.4 8.6-.8 17.6-1.1 26.4-.1 2.9 0 5.9 0 9.4h-19.9v29.3h19.9c-.1 33.5-.1 66.6-.1 100.2z"/></symbol><symbol viewBox="0 53.9 595.3 595.1" id="share-li"><path d="M298.7 57.5C136 57.5 4.1 189.5 4.1 352.2S136 647 298.7 647s294.6-132 294.6-294.7S461.4 57.5 298.7 57.5zm-75.7 432h-66.4V289.9H223v199.6zm4.5-259.5c-.7 16.1-12 28.8-28.3 31.8-11.2 2-21.9 1.1-31.6-5.3-8.4-5.5-13-13.5-14.5-23.4-.1-.7-.3-1.5-.4-2.2v-5.5c.1-.6.3-1.1.4-1.7 2.1-14.6 10.4-23.8 24.2-28.2 2.6-.9 5.4-1.3 8.1-1.9h10c2.4.5 4.7.9 7.1 1.5 15.9 4.5 25.8 18.3 25 34.9zm235.1 259.5h-66.4c0-1-.1-2-.1-2.9 0-34.2 0-68.4-.1-102.7 0-8-.6-16-3.1-23.8-3-9.1-8-16.4-17.2-20.1-14.6-5.8-31.4-1.2-41.1 11.1-6.3 7.9-8.5 16.9-8.4 26.9.1 37.2 0 74.3 0 111.5h-66.4l.3-152.9c0-14.8-.2-29.7-.4-44.5v-2.2h66.5V317c.1.1.3.1.4.2.6-.9 1.2-1.8 1.9-2.7 8.3-12 18.7-21.6 32.9-25.6 29.3-8.2 56.4-4.7 78.8 17.6 10 10 15.7 22.6 18.7 36.3 1.6 7.3 2.2 14.8 3.3 22.2.1.7.2 1.5.4 2.2v122.3z"/></symbol><symbol viewBox="0 0 577 579" id="share-mail"><path d="M272 5h34c1.3.3 2.5.7 3.8.8 27.9 1.9 55.2 7.5 81 18.2 98.7 40.9 158.4 113.8 178.3 218.9 1.8 9.6 2.6 19.4 3.9 29.1v34c-.3 1.6-.8 3.2-.9 4.9-2.2 29.4-8.3 58.1-20.1 85.1-41.7 95.9-114 153.8-216.9 173.2-9.6 1.8-19.4 2.6-29.1 3.9h-34c-1.3-.3-2.5-.7-3.8-.8-34.8-2.4-68.1-10.6-99.4-26-88.5-43.6-142-114-159.9-211.2-1.8-9.6-2.6-19.4-3.9-29.1v-34c.3-1.5.7-2.9.8-4.4 2-27.6 7.4-54.5 18-80C64.6 88.6 137.6 28.8 242.9 8.9c9.6-1.8 19.4-2.6 29.1-3.9zm196.7 203c-1.7 1.1-2.7 1.6-3.7 2.3-57.4 40.8-114.8 81.6-172.1 122.5-2.6 1.8-4.3 2.6-7.4.4-53.9-38.5-107.9-76.9-161.9-115.3-4.5-3.2-9.1-6.4-14.2-10v196h359.4c-.1-65.3-.1-130.2-.1-195.9zm-1.8-33.7H111.4c2.3 1.7 3.7 2.8 5.2 3.8 55.8 39.6 111.7 79.1 167.4 118.8 3.9 2.8 6.4 2.8 10.3 0 45.4-32.4 90.9-64.6 136.4-96.8 11.6-8.4 23.4-16.7 36.2-25.8z"/></symbol><symbol viewBox="0 53.9 595.3 601" id="share-tw"><path d="M300.7 59.5C138 59.5 6.1 191.5 6.1 354.2S138 649 300.7 649s294.6-132 294.6-294.7S463.4 59.5 300.7 59.5zm206.8 271.9c-5.2 5.2-11.2 9.2-18 11.8-4.5 1.7-9.2 3.1-13.9 3.9-4.5.8-9.3.7-13.9 1-1.1.1-1.7.3-2.1 1.5-2.3 7.2-4.3 14.5-7.3 21.5-7.5 17.6-18.2 33.2-31.5 47-13.3 14-28.6 25.5-45.4 34.9-7.5 4.2-15.4 7.6-23.2 11.2-4.2 1.9-8.6 3.6-13 5.2-3.3 1.2-6.7 2.2-10.2 3.2-3.3.9-6.6 1.8-10 2.6-4 1-7.9 2-11.9 2.8s-8 1.3-12 1.8c-6.1.8-12.3 1.9-18.4 2-10.4.2-20.8-.1-31.3-.4-4.3-.1-8.6-.6-12.9-1.1-4-.5-7.9-1.4-11.9-2.2-3-.6-5.9-1-8.8-1.7-4.2-1.1-8.4-2.4-12.6-3.7-4.9-1.6-9.8-3-14.5-4.9-6.1-2.5-12-5.4-18-8.3-11.1-5.5-21.3-12.3-31-19.9-12.8-10.1-24.1-21.7-34.1-34.6v-.4c.5.2 1.2.2 1.6.5 6.7 5.8 14.1 10.5 22.1 14.2 4.7 2.2 9.6 4.1 14.6 5.8 3.4 1.1 6.9 1.9 10.4 2.5 5 .9 10.1 2 15.2 2.2 6.9.2 13.8-.2 20.7-.7 4.8-.4 9.6-1.2 14.1-2.5 6.2-1.8 12.2-4.2 18.1-6.7 11.6-5 21.6-12.5 30.6-21.3.4-.4.7-.9.9-1.2-3.3-.3-6.6-.5-9.9-.8-4.9-.5-9.2-2.5-13-5.6-6.8-5.6-7.6-14.5-1.5-20.8 2.5-2.5 5.7-4.3 8.6-6.4.8-.6 1.7-1 2.5-1.5-4-.2-7.8-.3-11.6-.5-6.4-.4-12.4-2.1-18.1-5-8.2-4.2-14.5-10.5-19-18.6-.2-.4-.2-1.3.1-1.6 3.9-4.3 8.8-7.1 14.3-8.5 3.6-.9 7.3-1.1 11-1.7.3 0 .6-.2 1-.4-.9-.4-1.5-.8-2.3-1-5.3-1.2-10.4-3.2-15.3-5.5-10.5-4.9-18.9-12-23.6-22.9-1.6-3.6-2.6-7.4-3.9-11.4 8.4-2 16.4-3.5 24.6-3.5-2.3-1.6-4.6-3-6.9-4.5-8.8-5.7-16.1-12.9-21.4-22.1-3.3-5.7-5.1-11.9-6-18.3-.3-2 0-4.2 0-6.6 2.2.9 4.1 1.8 6 2.5 5.4 2.1 10.8 4.2 16.3 6.2 5.5 2.1 11.1 4.1 16.6 6.4 5.2 2.2 10.4 4.6 15.5 6.9 5.6 2.4 11.2 4.7 16.8 7.3 6.8 3.2 13.6 6.5 20.4 9.9 6.1 3.1 12.2 6.2 18 9.8 9.5 5.8 17.6 13.4 25.5 21.2.4.4 1 .7 1.7 1.2.2-.8.2-1.3.4-1.7 4-9.7 7.7-19.5 12.1-29s9.2-18.8 14.5-27.8c4.2-7.1 9.2-13.7 14.2-20.2 4.8-6.2 10.7-11.5 17-16.4 1.5-1.2 3.3-2.2 5.3-3.5-.3 4.3-2.5 7.2-4.4 10.1 3.7-2.3 7.3-4.6 11-6.9 4.2-2.5 8.7-4.4 13.6-5.3 1.4-.3 2.8-.7 4.1-1.1h1.6c-.1 2-1.1 3.6-2.3 5.1-2.8 3.3-6.4 5.6-10.2 7.5.5.2 1 .3 1.4.2 3.8-1.3 7.7-2.5 11.4-3.9 4-1.4 8-2.4 12.3-2.4 1.5 0 3.2-.2 4.3.5 3.2 2 2.8 4.7 0 7.2-3.5 3.1-8 4.3-12.5 5.6-2.3.7-4.6 1.1-6.9 1.8s-4.7 1.4-6.9 2.2c-2.1.7-4.1 1.6-6.1 2.4.5.5.8.6 1.2.6 6.7-.6 13.2-.2 19.7 1.6 4.4 1.2 8.9 2.2 13 4.1 8.1 3.6 15.5 8.5 22.2 14.4 8.3 7.3 15.1 15.7 20.6 25.2 3.8 6.5 6.7 13.4 8.8 20.6 1 3.5 1.9 7.1 2.9 10.6.2.5.6 1.2 1.1 1.4 5.4 1.7 11 2.6 16.6 2.8 4.1.1 8.1-.3 12.2-.3 4.7-.1 9.2-.8 13.6-2.3 1.4-.5 2.9-.8 4.3-1.3.1.1.2.3.3.4-1.3 2-2.5 4.1-4 6-6.7 8.1-16.1 11.3-25.9 13.5-4.2.9-8.6 1.2-13 1.8-.2 0-.4.2-1.2.6 15.1 5 30 6.6 45.7 4.7-.2.4-.5.7-.8 1z"/></symbol><symbol viewBox="0 0 154 189" id="stats"><path d="M110.4 151.4c-2.9-.1-5.8-.1-8.7-.1-.7-5.3-.4-11.1-.5-16.4-.1-6.7-.6-13.4-.5-20.1 0-2.2.4-5-1.8-6.4-3.4-2.2-11.6-.8-15.3-.6-1.2.1-2.1.7-2.2 2-.7 8.5-.3 17.5.1 26 .2 3.6.4 7.2.4 10.8 0 2-.3 3.7 0 5.5-2.2.1-4.4.3-6.5.4-.3-7.8.5-15.8-.4-23.4-.7-6-7.9-3.8-12.2-3.6-3.7.2-6.9 0-6.9 4.5 0 7.9-.2 15.8.4 23.7l-6 .3c0-4.5-.1-8.9-.7-13.3-.4-3.5-7.4-1.9-9.4-2-1.9-.1-8.2-1-8.8 2-.8 4.2-.6 9.2.2 13.5-1.2.1-2.5.3-3.7.7-2.2.6-1.4 4 .8 3.4 5.8-1.6 12.7-.4 18.7-.6 7.1-.2 14.1-.6 21.1-1.1 13.7-.9 27.8-1.8 41.5-1.4 2.7.2 2.9-3.7.4-3.8zm-75.9-5.2c0-.4.2-4 0-3.9 1.1-.4 3.3-.1 4.5-.1h1c-1.1 1-2.2 2.1-3.3 2.9-.7.5-1.4 1.2-2.2 1.8v-.7zm2.7 7.6l-.3.3h-2.4c.1-.6.1-1.2.2-1.8 1.4-1.9 2.8-3.6 4.7-5.2 1.6-1.4 3.4-2.9 4.7-4.7.5 0 1-.1 1.6-.1 1.6-.1.6-.4.9 1 .1.4.1.8.2 1.1-1 .7-1.9 1.8-2.7 2.7-1.1 1.2-2.3 2.3-3.4 3.4-1.3 1.1-2.3 2.4-3.5 3.3zm8.2.4h-3.7c.5-.5.8-.9 1.1-1.2 1.4-1.5 2.9-2.9 4.1-4.6 0 1.9-.1 3.9-.1 5.7-.5.1-1 .1-1.4.1zm17.2-25c1 0 1.9-.1 2.9-.1-.6.8-1.2 1.7-1.8 2.4-1.4 1.7-3 3.2-4.4 4.9-.2-3.4-.5-7.1 3.3-7.2zm-3.1 12c.1-.1.3-.2.4-.4 1.6-2.6 3.9-4.7 5.8-7 1.2-1.4 2.7-3.2 3.7-4.9 2.3-.2 2.1 2.3 1.9 4.4-.7.6-1.3 1.6-1.9 2.2-2 2.3-4.2 4.4-6.2 6.7-1 1.2-2.4 2.5-3.6 3.8 0-1.6 0-3.2-.1-4.8zm3.3 12.2c-1.1.1-2.3.1-3.4.2 0-.4.1-.8.1-1.2l.2-.2c2.2-3.1 4.6-6 7-8.9.7-.9 2.8-2.8 4.5-4.8v5c-.2.2-.3.4-.5.6-1.3 1.4-2.6 2.8-3.9 4.3-.9 1.2-3 3.1-4 5zm4.3-.3l2.4-3c.5-.6 1.2-1.3 1.9-2.1 0 1.6.1 3.3.1 4.9-1.5 0-3 .1-4.4.2zm30-14.9c-1.7 1.5-3.4 3.5-4.8 5-2.6 2.8-4.7 6-7.4 8.7h-.2c.1-2.1.2-4.1.3-6.1 2.9-2.5 5.4-6.2 7.9-9 1.3-1.4 2.8-3 4.2-4.7.1 2 0 4.1 0 6.1zm0-11c-2.6 3.1-5.4 6.1-8.1 9.1-1 1.1-2.5 2.4-3.7 3.8 0-1.9.1-3.7 0-5.6 1.3-.9 2.1-2.3 3.1-3.5 1.5-2 3.2-3.9 4.9-5.8 1.2-1.4 2.6-2.8 3.8-4.3-.1 2.1 0 4.2 0 6.3zm-11.6-15.4c1.4-.1 3.4-.3 5.3-.3-.8.9-1.6 1.7-2.4 2.6-1 1-2.2 2.1-3.2 3.2.1-1.8.2-3.6.3-5.5zm-.4 10.7c.1-.1.3-.2.4-.3 2.1-2.3 4.1-4.6 6.2-6.9 1-1.1 1.9-2.4 2.9-3.5 1.3.3 2.1.7 2.1 1.5 0 .7 0 1.5.1 2.2-2.5 3.1-5.2 6-7.7 9.1-1.1 1.4-2.8 2.9-4 4.5v-6.6zm4.7 29.2c1.9-2.2 3.4-4.6 5.4-6.8l2-2c0 2.9.2 5.7.5 8.5-2.7.1-5.3.2-7.9.3zm-50.6 15.4s0-.1 0 0v-.8c0-.4 0-.8.1-1.2 0-.2 0-.4.1-.5v-.1c.2-1-.2-1.9-1.2-2.3-.9-.3-2.1.2-2.4 1.2-.4 1.7-1.1 5.2.7 6.3 1 .6 2.5.2 2.8-1 .1-.6 0-1.1-.1-1.6zm9.7-3.6c-.1 1.3-.4 2.5-.5 3.8-.2 2.7 4.1 2.9 4.1.2 0-1.3.2-2.6.2-3.8.2-2.6-3.5-2.7-3.8-.2zm17.6-.1c0-.9-.5-1.6-1.3-1.9-.3-.1-.6-.1-.9-.1h-.1c-.8.2-1.4.9-1.5 1.8-.1 1-.1 2.1-.2 3.1-.2 2.5 3.9 2.7 4 .2-.1-1 0-2 0-3.1zm13.5 2.3c-.1-.5-.1-1-.2-1.5v-1.5c0-1.1-.8-2-1.9-2-1.1-.1-1.9.8-2 1.9-.2 1.3-.2 2.9.1 4.1.5 2.5 4.7 1.6 4-1zm13.8-4c-.1-1.1-.7-2.1-1.9-2.1-1.2-.1-2 .8-2.1 1.9-.1 1.1-.1 2.3-.1 3.4 0 1.2.9 2.2 2 2.3 1.1.1 2.3-.9 2.3-2 0-1.2-.1-2.4-.2-3.5zm12.7-.7c0-2.5-3.7-2.7-3.9-.2-.1 1.4-.1 2.8-.2 4.3-.1 2.7 4.2 2.9 4.2.2 0-1.5-.1-2.9-.1-4.3zM73 94.7c-.2 0-.5-.1-.7 0-4.9.5-9.8.6-14.7.7-2.3.1-2.5 3.4-.2 3.6 2.6.2 5.3.3 7.9.2-9.2 6-17.2 14.5-27.1 19.2-2.2 1.1-.5 4.3 1.8 3.4 4.1-1.7 8.2-5.2 11.8-7.7 4.3-3 8.6-6.1 13-9 1.4-.9 2.9-1.8 4.4-2.8-.9 2.3-1.3 4.5-2.6 6.7-1.4 2.4 2.2 4.7 3.6 2.3 1.3-2.2 2.1-4.5 2.8-6.9.7-2.6 1.8-5 2-7.8 0-1.2-1-1.9-2-1.9zM47.1 96c0-5.4-3.9-5-8.5-4.9-3.4 0-6.8.2-10.2.2h-2.3c-1.6-.1-3.1 0-4.4 0-3 .1-3.5 2.8-2.8 5.2.8 3.1 6.5 2 8.7 2.1 5.7.1 11.4-.4 17.1-.2.7 0 1.4-.3 1.8-.9.4-.4.6-.9.6-1.5zm2.4-73c-.2-5.4-4.6-4.9-9.8-4.8-3.9.1-7.7.3-11.6.5h-2.6c-1.8 0-3.6.1-5 .1-3.4.1-3.9 2.9-3.1 5.2 1 3 7.5 1.9 10 1.9 6.5-.1 13-.7 19.5-.6.8 0 1.6-.4 2.1-1 .3-.2.5-.7.5-1.3zm12 4.8c-8.2 0-15 3.3-19.6 8.5-3.7 3-5.8 9-6.4 12.9-1.4 9.2 1.1 18.8 8.9 24.6 7.7 5.7 18 8.9 27.3 5.4 9.1-3.3 15.9-10 18.5-19.3 5.5-19.6-10.6-32-28.7-32.1zm24.7 21.8c.2 1.2.3 2.5.3 3.9 0 .3 0 .6-.1.9-1.4-.9-3.1-1.5-4.4-2.1-.8-.4-1.7-.8-2.5-1.3 2.4-.3 4.6-.8 6.7-1.4zM53.3 74C39 68.5 36.7 53.7 42.7 41.9c3.5-5.7 9.6-8.3 16-9.2 6.5-.9 13.1.3 18.2 3.4-2.6 2.3-4.7 5.3-6.9 7.9-2.4 2.8-5.7 5.7-7.4 9 0 .1-.1.2-.1.3-.3.3-.5.8-.4 1.4.6 7.1 1.2 14.1 2.1 21.1 0 .1 0 .2.1.3-3.7.1-7.4-.7-11-2.1zM68 75.7c0-.2.1-.5 0-.7-.2-1.2-.3-2.4-.5-3.6l.9.6 3.9 2.4c-1.4.6-2.9 1-4.3 1.3zm9.4-4.4c-.5.4-1 .8-1.6 1.2-.5-.3-1-.5-1.5-.8-1.2-.5-2.3-1.4-3.5-2.1-1.2-.7-2.5-1.8-3.9-2.2-.1-.9-.2-1.7-.3-2.6 0-.3 0-.5-.1-.8 1.3 1 2.8 1.9 3.9 2.6 2.4 1.5 4.8 3.3 7.5 4.4-.2 0-.4.1-.5.3zm3.2-3.1c-2.9-1.8-6.1-3.4-9.1-5.1-1.7-1-3.4-2.8-5.3-3.1-.1-1.5-.2-2.9-.5-4.3 2.6 2.2 6.2 3.7 9.2 5.3 2.5 1.3 5 3.4 7.7 4.7-.6.8-1.2 1.6-2 2.5zm1.2-7.7c-1.8-1.3-4.1-2.2-6.1-3.2-2.2-1.1-4.4-2.3-6.6-3.4 1.6-.6 3.4-1.1 5.2-1.6 1.8 1.2 4 2.2 5.9 3.1 1.6.7 3.1 1.6 4.6 2.4.5.2.8.5 1.1.7-.3 1.4-.8 2.6-1.4 3.9-1-.5-1.8-1.3-2.7-1.9zM93.1 24c-1 .1-2-.1-3-.1-.6 0-1.3.1-1.9.2-.3.1-2.3.9-.9.5-1.8.4-1.9 2.9-.2 3.5.9.3 1.8-.2 2.7-.2 1.2 0 2.4.3 3.6.1 3.1-.2 2.7-4.3-.3-4zM115 66.9c-5.9-.6-12.3-.5-18.2 0-2 .2-1.6 3.4.3 3.4 5.8 0 11.9-.1 17.7.5 2.6.3 2.8-3.7.2-3.9zm.2 6.3c-6-.6-12.1.4-18-.2-2.3-.2-2.5 3.3-.2 3.6 5.9.8 12.1.4 18.1.2 2.2-.1 2.4-3.3.1-3.6zm-.5 6.7c-3.3.1-6.7-.1-10.1-.2-2.2-.1-5.8-.6-7.8.4-1.1.6-1.1 2.2-.1 2.9 0 0 .1 0 .1.1.4.3 1 .3 1.5.1-.7.4 1 .2 1.4.3 2 .2 4-.1 6 0 2.9.1 6 .2 8.9.1 2.2-.2 2.4-3.8.1-3.7z"/><path d="M138.1 152.8c0-1.2 0-2.3.1-3.4 2.6.2 5.6-2.5 5.7-5.1.2-3.5-2.5-5.7-5.7-6.5v-4.9c6-.5 8.6-8.8 2.1-11.4-.7-.3-1.4-.4-2.2-.5 0-1.2-.1-2.5-.1-3.7 2.6-.2 5.3-1.9 5.5-4.7.3-3.2-2.2-5-5-5.7-.3-.1-.5-.1-.8-.1 0-1-.1-1.9-.1-2.9 4.5.7 8.5-7.8 3.9-11.1-1.1-.8-2.6-1.3-4.2-1.5v-3.8c2.4 0 5.2-1.2 5.9-3.6 1-3.3-.7-6-3.7-7.4-.7-.3-1.5-.6-2.3-.7v-3.4c5.2-.1 9.5-6.5 3.9-9.8-1.1-.6-2.4-1-3.8-1.2 0-1.4.1-2.8.1-4.2 2.6-.4 5-2.4 5.6-5.1.7-3.2-1.5-5.9-4.4-7l-.9-.3v-1.9c2.5 0 4.7-1.8 5.7-4.1 1.4-3-1.6-5.6-4-6.7-.5-.2-1-.4-1.5-.5 0-1.2 0-2.4.1-3.6 6.7-.5 7.9-10.8.3-12h-.1v-.3c.1-9-8.8-7.4-15.3-7-13.5.8-27.2.8-40.8 1.1-15.1.4-30.2.4-45.3.9-6.4.2-12.7 1-19.1.9-2.5-.1-6.2-.4-8.5 1-.3.2-.5.4-.6.6-.3.3-.5.6-.5 1.2.5 26 .4 51.9.5 77.8.1 13.6.4 27.2.7 40.8.1 6.5.2 13 .4 19.5.1 6.4.6 12.8.3 19.3-.4 8.6 2.9 10 10.2 9.2 12.3-1.4 24.8-1.5 37.2-2 13.6-.5 27.1-.4 40.7-.7 12.6-.2 25.7.9 38.1-1 1.1-.2 1.9-1.5 1.6-2.5-.1-.4-.2-1.8-.2-2.1 0-.1.1-3.3.2-7.6 2.3-.2 4.6-2.5 5.5-4.3 2-3.9-1.8-6.9-5.2-8zm.3-73.1c1.4.7 2.8 2.5.6 4-.5.3-1.1.4-1.8.5v-4.9c.5.1.9.2 1.2.4zm1.5-13.8c2.1 1.2-.9 2.6-2.5 2.9v-3.9c.9.2 1.7.5 2.5 1zm-.4-15.2c.3 1.3-.8 2.1-1.9 2.6 0-1.5.1-3.1.1-4.6.9.3 1.6 1 1.8 2zm-1.1-15.1c.9.3 1.7.9 1.7 1.9.1 1.2-1.2 1.6-2.3 1.9 0-1.3.1-2.6.1-3.9.2 0 .4 0 .5.1zm0-15.7c1.1.3 1.7 1.1 1.7 2.2 0 1.3-.9 1.9-2 2.2 0-1.5 0-2.9.1-4.4h.2zm-5.1 152.9v.7c-11.4 1.4-23.4.4-34.8.7-12 .3-24 .2-35.9.5-11.5.3-23.1 1.4-34.6 1.6-4.2.1-8.3.9-12.5.8-2.6-.1-1.1-15.8-1.2-17.4-.7-24-1.3-48.1-1.4-72.1-.1-24 .6-48.1-1.1-72.1 2.2.4 4.6.1 6.8-.1.8-.1 1.6-.1 2.5-.2 6 0 12.1-.6 18.1-.7 13.5-.3 27-.3 40.5-.6 12.9-.3 25.8-1 38.7-1.1 4.1 0 8.3-.4 12.4-.4 2 0 3 1.6 3.5 3.8-1.7.3-3.5.9-5 1.6-.7.3-1.6.9-2.4 1.6-.7-.4-1.5-.6-2.2-.6-1.8.1-3.4 1.4-3.7 3.2-.1.3-.1.6-.1.9.1 1.5 1.2 2.5 2.5 3 1.4.5 2.9.3 4.1-.6 1-.7 1.4-1.8 1.3-2.8.3-.3.6-.7 1-.9 1.4-.9 3-1.3 4.6-1.6.1 0 .2 0 .4-.1.1 3.4-.4 7-.5 8.7 0 1 0 1.9-.1 2.9-1.3.1-2.5.4-3.6.9-1 .4-2.6 1.6-3.7 2.9-1.6-.6-3.8 0-4.9 1.4-1 1.3-.6 3.3.5 4.4.5.5 1.1.8 1.6.9 1.2.4 2.5.1 3.5-.6.9-.6 1.4-2 1.4-3.1l.3-.3c1.2-1.7 2.8-2.4 4.8-2.7-.1 3.3-.1 6.6-.1 9.8-3.2.5-6.7 2-8.1 4.3-.8-.1-1.6.1-2.4.5-1.3.8-2.3 2.3-1.9 3.9.2.8.7 1.4 1.3 1.8.6.5 1.3.8 2.1.8.4 0 .8-.1 1.2-.2.2-.1.4-.1.6-.2.1 0 .1-.1.2-.1.1-.1.2-.1.3-.2.4-.3.8-.6 1.2-1 .6-.9.7-2.1.3-3.1 1.3-1.6 3.2-2.4 5.2-2.8v12.9c-2.7.3-5.4 1.5-7 3.4-1.1-.5-2.4-.4-3.4.2-.6.4-1.1.9-1.5 1.6-.4.6-.7 1.2-.6 1.8 0 1.9 1.5 3.3 3.3 3.6 1.8.3 3.7-1 4.3-2.6.3-.7.3-1.4.1-2 .2-.2.5-.5.8-.7 1.2-.9 2.6-1.5 4.1-1.7v1c0 3.3-.1 6.6-.2 9.9-1.2.1-2.4.4-3.5.8-1.7.6-3.6 2-4.4 3.8h-.1c-1.4 0-2.6.6-3.5 1.7-1 1.3-.7 3.1.2 4.4.7.9 1.9 1.2 3 1 .7 0 1.4-.3 2-.7 1.2-.9 1.7-2.6 1.3-4-.1-.3-.2-.6-.3-.8.1-.1.1-.2.2-.3 1.1-1.7 3-2.2 4.8-2.5h.2c-.1 4.1-.1 8.2-.1 12.4-3.4.5-6.5 2.1-7.7 4.8-.7-.1-1.4 0-2.2.3-1.6.6-2.3 2.3-2.1 3.9.1 1.4 1.1 2.3 2.2 2.7.3.1.5.2.8.3 1.8.4 3.4-.4 4.2-2 .5-1 .5-2.3 0-3.4 1.4-1.6 2.9-2.7 4.9-3.2.1 4 .2 8 .4 12-1.5.3-3 .8-4.3 1.5-1.1.6-2.2 1.6-2.9 2.7-1.9-.3-3.9.5-4.4 2.5-.3 1.3.1 2.7 1 3.6.6.6 1.5.9 2.3 1.1 3 .5 5.7-2.8 4-5.4.1-.2.2-.3.4-.5 1.1-1.1 2.6-1.7 4.1-2 .2 3.6.3 7.2.3 10.8-3.5.5-7 2.2-8.3 4.9-.5 0-1 .1-1.4.3-.8.4-1.4 1.1-1.8 1.9-.7 1.1-.6 2.4-.1 3.6 1.4 2.9 5.8 2.4 7-.5.5-1.3.2-2.6-.6-3.6.2-.3.4-.6.7-.9 1.2-1.3 3-1.7 4.7-2 0 4.2 0 8.5-.1 12.7-2.6.1-5.2 1-7.1 2.5-.6.5-1.3 1.3-1.8 2.2-1.5.1-2.8.9-3.4 2.4-.7 1.6.4 3.8 2 4.4.4.2.9.2 1.4.2 1.5.2 2.9-.6 3.7-2 .6-1.1.7-2.7-.1-3.7 1.2-1.5 3.1-2.2 5.4-2.4 0 2.1-.1 4.1-.1 6.2 0 1.3 0 3.2-.1 5.3-2.3.4-4.6 1.4-6.3 2.5-.7.5-1.7 1.5-2.3 2.6-.7.1-1.5.4-2 .9-1.4 1.2-1.6 3.6-.3 4.9.5.8 1.5 1.4 2.5 1.3 1.6-.1 3-1.2 3.6-2.7.4-1.1.1-2.2-.6-3 .2-.4.6-.8 1.3-1.2 1.2-.7 2.7-1.2 4.1-1.5-.2 7.5-.5 16-.5 16.2-.9-.6-.9-.5-.9-.4zm4.3-72.7c-.1-1.8-.1-3.7-.1-5.5 1.5.3 2.9 1.2 3 2.8.1 1.5-1.4 3.2-2.8 2.9l-.1-.2zm.3 10.2c.3.1.6.1.9.2 1.1.4 2 1.3.9 2.5-.4.4-1 .6-1.7.7-.1-1.1-.1-2.2-.1-3.4zm.3 14.2c.4.1.8.1 1.1.2 1.3.4 1.8 1.3 1.5 2.7-.3 1.2-1.4 1.8-2.6 2v-4.9zm0 20.5v-3.4c.3.1.5.2.8.3 1.2.7 1.8 1.8.6 3.2-.4.5-.9.7-1.5.8.1-.3.1-.6.1-.9zm2 14.4c-.3.6-1 1.1-1.5 1.6-.2.2-.5.3-.8.5 0-1.6.1-3.3.1-4.9 1.6.5 2.9 1.4 2.2 2.8z"/></symbol><symbol viewBox="0 0 21.8 23.3" id="talenteo"><path d="M.8 10.7h20.3v4H.8zm0 7.3h20.3v4H.8zm7.3-9.7h3.8L16.6.8h-4.8z"/></symbol><symbol viewBox="0 0 90 90" id="yt"><path d="M90 26.958C90 19.525 83.979 13.5 76.55 13.5h-63.1C6.021 13.5 0 19.525 0 26.958v36.084C0 70.475 6.021 76.5 13.45 76.5h63.1C83.979 76.5 90 70.475 90 63.042V26.958zM36 60.225V26.33l25.702 16.947L36 60.225z"/></symbol></svg>